<svg id="svg" xmlns="http://www.w3.org/2000/svg" xmlns:xlink="http://www.w3.org/1999/xlink" width="400" height="391.4407988587732" viewBox="0, 0, 400,391.4407988587732"><g id="svgg"><path id="path0" d="M92.631 73.445 C 92.213 73.761,92.047 74.020,92.262 74.020 C 92.478 74.020,92.996 73.761,93.415 73.445 C 93.833 73.129,93.999 72.870,93.783 72.870 C 93.568 72.870,93.049 73.129,92.631 73.445 M88.834 75.490 C 88.457 75.589,88.149 75.833,88.149 76.033 C 88.149 76.586,88.778 76.466,89.324 75.808 C 89.592 75.485,89.746 75.241,89.666 75.266 C 89.586 75.291,89.212 75.392,88.834 75.490 M86.375 76.936 C 85.683 77.420,83.141 78.822,78.552 81.248 C 77.690 81.704,76.897 82.165,76.788 82.272 C 76.680 82.380,75.974 82.798,75.220 83.202 C 74.466 83.606,72.703 84.555,71.303 85.312 C 69.902 86.069,68.051 87.061,67.190 87.517 C 66.329 87.972,65.535 88.433,65.427 88.541 C 65.319 88.649,64.393 89.146,63.369 89.646 C 62.346 90.146,61.508 90.699,61.508 90.876 C 61.508 91.053,61.025 91.319,60.435 91.468 C 59.844 91.616,59.272 91.855,59.162 92.000 C 59.052 92.144,57.904 92.791,56.611 93.438 C 55.318 94.084,54.172 94.701,54.064 94.809 C 53.877 94.995,51.745 96.177,49.168 97.525 C 48.522 97.863,47.904 98.248,47.797 98.380 C 47.689 98.513,47.160 98.757,46.621 98.924 C 46.082 99.090,45.221 99.555,44.707 99.956 C 44.193 100.357,43.532 100.686,43.238 100.686 C 42.944 100.686,42.703 100.843,42.703 101.035 C 42.703 101.227,42.285 101.489,41.774 101.617 C 40.725 101.881,36.827 105.385,36.827 106.064 C 36.827 106.307,36.518 106.816,36.141 107.195 C 35.373 107.967,35.214 129.241,35.968 130.197 C 36.168 130.450,36.451 134.006,36.598 138.100 C 36.746 142.194,37.039 147.747,37.251 150.441 C 37.836 157.875,38.753 172.414,39.202 181.391 C 39.423 185.808,39.773 190.304,39.980 191.381 C 40.187 192.458,40.531 196.778,40.744 200.979 C 41.468 215.245,42.192 220.176,43.562 220.176 C 43.736 220.176,43.879 220.406,43.879 220.687 C 43.879 221.909,48.523 225.269,50.213 225.269 C 50.737 225.269,51.359 225.463,51.596 225.700 C 52.071 226.174,55.346 225.997,57.628 225.373 C 61.346 224.356,65.276 220.283,65.718 216.991 C 65.831 216.146,66.076 215.362,66.262 215.246 C 66.700 214.976,66.706 211.276,66.269 211.006 C 66.086 210.893,65.810 207.053,65.656 202.472 C 65.502 197.891,65.234 193.962,65.060 193.742 C 64.886 193.521,64.621 189.640,64.469 185.119 C 64.318 180.597,64.054 176.719,63.882 176.500 C 63.710 176.281,63.447 172.400,63.297 167.875 C 63.147 163.350,62.860 159.480,62.658 159.275 C 62.457 159.071,62.292 157.309,62.292 155.361 C 62.292 150.809,61.609 137.954,61.126 133.399 C 60.920 131.459,60.636 127.555,60.494 124.723 L 60.237 119.574 61.167 119.284 C 61.678 119.124,62.184 118.875,62.292 118.730 C 62.400 118.586,63.193 118.113,64.055 117.679 C 66.906 116.245,69.145 115.031,69.344 114.810 C 69.452 114.691,70.333 114.183,71.303 113.681 C 72.272 113.180,74.300 112.073,75.808 111.222 C 77.316 110.371,79.035 109.465,79.628 109.208 C 80.220 108.951,80.705 108.617,80.705 108.466 C 80.705 108.315,81.234 108.075,81.881 107.933 C 82.527 107.791,83.056 107.513,83.056 107.315 C 83.056 107.116,83.293 106.954,83.584 106.954 C 83.874 106.954,84.518 106.601,85.015 106.170 C 85.512 105.739,86.156 105.387,86.446 105.387 C 86.736 105.387,86.974 105.204,86.974 104.981 C 86.974 104.706,86.721 104.711,86.190 104.995 C 85.759 105.226,85.404 105.276,85.400 105.107 C 85.397 104.938,85.234 105.052,85.039 105.362 C 84.744 105.828,84.577 105.836,84.065 105.412 C 83.342 104.812,83.110 80.569,83.822 80.128 C 84.028 80.001,84.086 79.607,83.950 79.253 C 83.767 78.777,83.867 78.673,84.334 78.852 C 84.680 78.985,85.020 78.972,85.087 78.822 C 85.155 78.673,85.797 78.066,86.514 77.473 C 87.855 76.365,87.753 75.972,86.375 76.936 M93.241 101.322 L 92.262 101.894 93.242 101.633 C 94.333 101.342,94.627 101.157,94.384 100.914 C 94.294 100.823,93.780 101.007,93.241 101.322 M91.101 102.230 C 90.976 102.432,90.085 102.992,89.122 103.473 C 88.159 103.954,87.447 104.424,87.540 104.516 C 87.632 104.609,88.292 104.379,89.006 104.005 C 89.720 103.631,90.699 103.128,91.182 102.887 C 92.076 102.441,92.367 101.861,91.698 101.861 C 91.495 101.861,91.227 102.027,91.101 102.230 M112.243 145.030 L 111.459 145.841 112.319 145.396 C 113.224 144.928,113.883 144.156,113.343 144.196 C 113.169 144.208,112.674 144.584,112.243 145.030 M109.456 148.298 C 109.099 148.844,108.878 149.361,108.965 149.448 C 109.052 149.535,109.420 149.089,109.783 148.457 C 110.592 147.048,110.352 146.932,109.456 148.298 M109.254 160.823 C 109.466 161.254,109.926 161.959,110.277 162.390 L 110.915 163.173 110.530 162.390 C 110.319 161.959,109.858 161.254,109.508 160.823 L 108.870 160.039 109.254 160.823 M89.723 242.797 C 89.004 243.079,87.975 244.078,88.415 244.066 C 88.592 244.061,89.177 243.712,89.716 243.291 C 90.725 242.502,90.726 242.403,89.723 242.797 M86.974 244.466 C 86.974 244.682,86.717 244.858,86.404 244.858 C 86.090 244.858,85.424 245.268,84.923 245.768 C 84.423 246.269,83.798 246.607,83.534 246.519 C 83.271 246.432,83.056 246.530,83.056 246.739 C 83.056 246.947,82.747 247.221,82.370 247.348 C 81.993 247.475,80.803 248.110,79.726 248.759 C 78.648 249.407,77.458 250.050,77.081 250.186 C 76.704 250.323,76.396 250.590,76.396 250.780 C 76.396 250.971,76.144 251.126,75.836 251.126 C 75.528 251.126,75.043 251.349,74.759 251.621 C 74.474 251.892,73.800 252.332,73.262 252.597 C 72.165 253.137,70.816 253.959,70.519 254.269 C 70.411 254.381,69.882 254.690,69.344 254.955 C 67.445 255.891,64.052 257.880,63.859 258.170 C 63.751 258.332,63.266 258.588,62.782 258.740 C 62.297 258.891,61.900 259.179,61.900 259.380 C 61.900 259.581,61.710 259.745,61.479 259.745 C 61.063 259.745,55.621 262.792,55.240 263.238 C 55.132 263.364,54.351 263.820,53.504 264.251 C 51.720 265.159,48.972 267.607,48.972 268.289 C 48.972 268.546,48.828 268.756,48.653 268.756 C 47.052 268.756,45.791 279.515,47.333 280.028 C 47.588 280.113,47.796 280.485,47.796 280.854 C 47.796 285.463,58.919 289.685,63.874 286.957 C 67.539 284.939,71.904 282.283,72.021 282.001 C 72.093 281.827,72.334 281.685,72.558 281.685 C 72.781 281.685,75.049 280.451,77.598 278.942 C 80.147 277.434,82.337 276.200,82.465 276.200 C 82.683 276.200,83.185 275.824,84.361 274.782 C 84.633 274.541,85.248 274.220,85.729 274.067 C 86.786 273.732,89.771 271.814,89.562 271.605 C 89.480 271.523,88.820 271.818,88.095 272.260 C 87.371 272.701,86.525 273.063,86.215 273.064 C 85.906 273.065,85.216 273.462,84.683 273.947 C 84.149 274.432,83.832 274.620,83.978 274.366 C 84.124 274.111,84.065 273.793,83.846 273.657 C 83.589 273.499,83.448 268.794,83.448 260.408 L 83.449 247.405 84.360 246.817 C 84.861 246.494,85.829 245.877,86.511 245.446 C 87.745 244.667,88.114 244.074,87.365 244.074 C 87.150 244.074,86.974 244.251,86.974 244.466 M94.443 268.529 C 94.064 268.986,94.125 269.048,94.787 268.875 C 95.230 268.760,95.593 268.509,95.593 268.319 C 95.593 267.790,94.960 267.906,94.443 268.529 M90.500 270.911 C 89.970 271.549,90.097 271.628,91.055 271.261 C 91.396 271.130,91.675 270.865,91.675 270.673 C 91.675 270.131,91.040 270.260,90.500 270.911 M110.345 298.041 C 110.245 298.203,111.099 298.335,112.243 298.335 C 113.387 298.335,114.241 298.203,114.141 298.041 C 114.041 297.880,113.187 297.747,112.243 297.747 C 111.299 297.747,110.444 297.880,110.345 298.041 M99.771 307.803 C 99.412 308.163,99.441 312.937,99.804 313.162 C 99.966 313.262,100.098 312.038,100.098 310.443 C 100.098 308.847,100.083 307.542,100.065 307.542 C 100.047 307.542,99.915 307.659,99.771 307.803 M108.521 322.840 C 109.880 323.762,110.654 324.031,109.696 323.248 C 109.158 322.807,108.541 322.445,108.325 322.444 C 108.110 322.442,108.198 322.620,108.521 322.840 " stroke="none" fill="#1655a7" fill-rule="evenodd"></path><path id="path1" d="M194.417 18.015 C 193.932 18.220,193.536 18.309,193.536 18.212 C 193.536 18.114,192.875 18.409,192.067 18.867 C 188.154 21.084,186.952 21.749,185.504 22.499 C 184.643 22.945,183.704 23.531,183.420 23.800 C 183.135 24.070,182.552 24.290,182.123 24.290 C 181.695 24.290,181.454 24.466,181.587 24.682 C 181.720 24.897,181.554 25.073,181.218 25.073 C 180.882 25.073,180.607 25.260,180.607 25.488 C 180.607 25.717,180.431 25.794,180.215 25.661 C 180.000 25.528,179.824 25.592,179.824 25.803 C 179.824 26.014,179.282 26.305,178.620 26.451 C 177.959 26.596,177.511 26.809,177.626 26.924 C 177.740 27.038,177.268 27.431,176.576 27.795 C 174.125 29.087,172.176 30.253,171.566 30.794 C 171.225 31.095,170.642 31.342,170.269 31.342 C 169.873 31.342,169.703 31.522,169.859 31.776 C 170.042 32.071,169.846 32.120,169.246 31.929 C 168.598 31.724,168.444 31.778,168.664 32.134 C 168.857 32.448,168.774 32.556,168.427 32.440 C 168.132 32.342,167.622 32.547,167.295 32.897 C 166.967 33.247,166.842 33.319,167.016 33.056 C 167.241 32.715,167.099 32.640,166.518 32.792 C 165.903 32.952,165.807 33.129,166.124 33.512 C 166.759 34.277,166.644 59.216,166.003 59.631 C 165.637 59.868,165.661 60.029,166.101 60.312 C 166.419 60.516,166.771 60.561,166.885 60.410 C 167.363 59.777,168.612 58.963,168.293 59.492 C 168.083 59.842,168.324 59.793,169.002 59.349 C 169.567 58.979,170.029 58.509,170.029 58.306 C 170.029 58.103,170.206 58.045,170.421 58.178 C 170.637 58.311,170.813 58.253,170.813 58.049 C 170.813 57.845,171.033 57.702,171.303 57.732 C 171.998 57.809,178.648 54.477,178.648 54.051 C 178.648 53.856,178.913 53.799,179.236 53.923 C 179.559 54.047,179.824 53.980,179.824 53.774 C 179.824 53.568,180.573 53.076,181.489 52.679 C 182.405 52.283,183.418 51.749,183.741 51.492 C 184.766 50.679,189.615 48.188,190.174 48.188 C 190.468 48.188,190.805 47.940,190.921 47.637 C 191.037 47.334,191.673 46.968,192.334 46.823 C 192.995 46.677,193.536 46.396,193.536 46.198 C 193.536 46.000,193.779 45.837,194.075 45.837 C 194.372 45.837,194.835 45.573,195.103 45.250 C 195.371 44.927,195.900 44.662,196.278 44.662 C 196.656 44.662,197.181 44.403,197.444 44.085 C 197.866 43.578,197.992 43.578,198.500 44.085 C 198.817 44.403,199.427 44.662,199.855 44.662 C 200.283 44.662,200.525 44.838,200.392 45.054 C 200.259 45.269,200.441 45.446,200.797 45.446 C 201.152 45.446,201.892 45.798,202.440 46.229 C 202.987 46.660,203.676 47.013,203.971 47.013 C 204.265 47.013,204.505 47.170,204.505 47.362 C 204.505 47.554,204.946 47.822,205.485 47.957 C 206.024 48.092,206.464 48.362,206.464 48.556 C 206.464 48.750,206.993 49.026,207.640 49.167 C 208.286 49.309,208.815 49.577,208.815 49.761 C 208.815 49.945,209.432 50.319,210.186 50.592 C 210.940 50.865,211.557 51.215,211.557 51.370 C 211.557 51.525,212.086 51.768,212.733 51.910 C 213.379 52.052,213.908 52.296,213.908 52.452 C 213.908 52.608,214.787 53.167,215.861 53.694 C 216.935 54.221,217.816 54.771,217.820 54.915 C 217.823 55.059,218.355 55.294,219.001 55.436 C 219.647 55.578,220.176 55.844,220.176 56.028 C 220.176 56.212,220.573 56.483,221.058 56.631 C 221.543 56.779,223.374 57.761,225.128 58.812 C 226.882 59.864,228.512 60.725,228.752 60.725 C 228.991 60.725,229.187 60.887,229.187 61.085 C 229.187 61.284,229.716 61.562,230.362 61.704 C 231.009 61.846,231.538 62.088,231.538 62.241 C 231.538 62.575,235.536 64.643,236.180 64.643 C 236.428 64.643,236.631 64.802,236.631 64.996 C 236.631 65.190,237.116 65.540,237.708 65.774 C 238.759 66.188,240.155 66.984,240.548 67.393 C 240.887 67.746,243.081 68.700,243.389 68.629 C 243.550 68.591,243.683 68.706,243.683 68.885 C 243.683 69.064,244.608 69.636,245.739 70.157 C 246.871 70.678,247.991 71.287,248.229 71.510 C 248.466 71.733,249.436 72.257,250.383 72.676 C 251.331 73.094,252.194 73.529,252.302 73.643 C 252.409 73.757,253.026 74.115,253.673 74.437 C 254.319 74.760,255.106 75.269,255.420 75.569 C 255.962 76.084,258.323 77.209,258.778 77.170 C 258.894 77.160,259.261 77.422,259.591 77.753 C 259.922 78.084,260.430 78.355,260.720 78.355 C 261.010 78.355,261.309 78.540,261.385 78.768 C 261.461 78.995,261.842 79.228,262.232 79.285 C 262.623 79.342,263.065 79.588,263.215 79.831 C 263.382 80.100,263.701 80.140,264.034 79.934 C 264.442 79.682,264.211 79.442,263.129 78.990 C 260.359 77.833,260.497 78.599,260.411 63.904 C 260.368 56.595,260.465 50.695,260.627 50.795 C 260.788 50.895,260.921 50.769,260.921 50.516 C 260.921 50.254,260.595 50.141,260.166 50.253 C 259.703 50.374,259.477 50.278,259.581 50.005 C 259.674 49.760,258.647 49.030,257.299 48.384 C 255.951 47.738,254.654 47.027,254.416 46.804 C 254.178 46.582,253.253 46.070,252.359 45.667 C 251.466 45.265,250.735 44.799,250.735 44.634 C 250.735 44.468,250.206 44.216,249.559 44.074 C 248.913 43.932,248.384 43.654,248.384 43.456 C 248.384 43.257,248.215 43.095,248.009 43.095 C 247.803 43.095,246.761 42.580,245.693 41.950 C 244.626 41.321,243.648 40.909,243.521 41.036 C 243.395 41.163,243.291 41.061,243.291 40.810 C 243.291 40.558,243.120 40.353,242.910 40.353 C 242.701 40.353,241.159 39.538,239.482 38.542 C 236.702 36.890,233.992 35.408,228.019 32.273 C 226.838 31.653,225.636 30.926,225.347 30.656 C 225.058 30.387,224.584 30.167,224.295 30.167 C 224.005 30.167,223.709 30.034,223.637 29.873 C 223.565 29.711,222.537 29.083,221.352 28.477 C 217.317 26.415,214.496 24.878,214.300 24.637 C 214.192 24.504,213.707 24.272,213.222 24.120 C 212.738 23.969,212.341 23.695,212.341 23.511 C 212.341 23.327,211.812 23.061,211.166 22.919 C 210.519 22.777,209.990 22.510,209.990 22.326 C 209.990 22.142,209.603 21.869,209.130 21.719 C 208.657 21.569,207.467 20.953,206.486 20.351 C 205.504 19.749,204.218 19.136,203.627 18.989 C 203.036 18.842,202.631 18.593,202.728 18.437 C 202.952 18.074,202.653 18.028,198.629 17.816 C 196.797 17.720,194.902 17.809,194.417 18.015 M261.325 50.805 C 261.305 51.532,262.407 52.441,263.168 52.323 C 263.548 52.265,263.971 52.390,264.107 52.601 C 264.244 52.812,264.596 52.905,264.890 52.807 C 265.508 52.601,264.376 51.883,263.075 51.655 C 262.644 51.580,262.077 51.254,261.815 50.930 C 261.515 50.562,261.333 50.515,261.325 50.805 M269.318 83.015 C 269.464 83.250,269.947 83.638,270.392 83.876 C 270.972 84.187,271.126 84.188,270.936 83.881 C 270.791 83.645,270.307 83.257,269.862 83.019 C 269.283 82.709,269.128 82.707,269.318 83.015 M192.948 102.586 C 191.655 103.213,190.333 103.839,190.010 103.976 C 189.687 104.114,188.188 104.931,186.680 105.790 C 185.171 106.650,183.022 107.793,181.903 108.330 C 180.784 108.868,179.760 109.483,179.627 109.698 C 179.494 109.912,179.043 110.088,178.625 110.088 C 178.207 110.088,177.865 110.275,177.865 110.503 C 177.865 110.731,177.689 110.809,177.473 110.676 C 177.258 110.543,177.079 110.576,177.077 110.751 C 177.074 110.925,176.325 111.410,175.412 111.829 C 174.498 112.248,173.355 112.940,172.870 113.367 C 172.385 113.793,171.986 113.980,171.982 113.780 C 171.979 113.581,171.847 113.602,171.688 113.827 C 171.323 114.347,168.339 116.089,168.635 115.610 C 168.756 115.415,168.415 115.458,167.878 115.708 C 167.341 115.957,166.900 116.381,166.898 116.650 C 166.897 116.920,166.738 117.140,166.545 117.140 C 166.353 117.140,166.090 117.414,165.962 117.748 C 165.825 118.105,165.893 118.255,166.126 118.110 C 166.692 117.761,166.609 142.985,166.043 143.668 C 165.730 144.044,165.786 144.172,166.260 144.172 C 166.609 144.172,166.895 143.898,166.895 143.562 C 166.895 143.226,167.046 143.044,167.229 143.157 C 167.413 143.271,167.898 143.092,168.307 142.760 C 168.715 142.427,168.802 142.284,168.500 142.441 C 168.147 142.624,168.046 142.570,168.218 142.291 C 168.366 142.052,168.732 141.950,169.031 142.065 C 169.330 142.179,170.029 141.975,170.585 141.611 C 171.141 141.246,171.596 141.090,171.596 141.264 C 171.596 141.438,171.820 141.274,172.094 140.900 C 172.367 140.526,172.984 140.190,173.465 140.154 C 173.946 140.118,174.339 139.949,174.339 139.780 C 174.339 139.610,174.668 139.471,175.070 139.471 C 175.471 139.471,176.249 139.119,176.796 138.688 C 177.344 138.257,178.001 137.904,178.257 137.904 C 178.512 137.904,179.169 137.551,179.717 137.120 C 180.265 136.690,180.954 136.337,181.248 136.337 C 181.542 136.337,181.783 136.195,181.783 136.022 C 181.783 135.848,182.913 135.277,184.295 134.753 C 185.676 134.229,186.727 133.670,186.629 133.513 C 186.532 133.355,186.900 133.113,187.447 132.976 C 187.995 132.838,188.443 132.569,188.443 132.377 C 188.443 132.185,188.640 132.027,188.880 132.027 C 189.121 132.027,191.251 131.056,193.614 129.868 L 197.910 127.708 201.502 129.521 C 203.477 130.518,206.151 131.923,207.444 132.643 C 210.619 134.411,212.995 135.553,213.495 135.553 C 213.722 135.553,213.908 135.734,213.908 135.955 C 213.908 136.277,215.051 136.937,216.259 137.311 C 217.002 137.542,218.892 138.565,219.309 138.963 C 219.586 139.227,221.041 140.012,222.541 140.708 C 224.042 141.403,225.269 142.100,225.269 142.257 C 225.269 142.414,225.798 142.659,226.445 142.801 C 227.091 142.943,227.620 143.202,227.620 143.377 C 227.620 143.552,228.103 143.817,228.693 143.965 C 229.284 144.113,229.857 144.357,229.967 144.507 C 230.297 144.957,234.311 146.915,234.904 146.915 C 235.207 146.915,235.455 147.062,235.455 147.243 C 235.455 147.573,239.535 149.714,240.010 149.633 C 240.150 149.610,240.373 149.751,240.505 149.948 C 240.856 150.472,250.677 155.534,251.343 155.534 C 251.655 155.534,251.910 155.684,251.910 155.867 C 251.910 156.253,257.019 158.912,257.479 158.766 C 257.648 158.712,257.786 158.844,257.786 159.060 C 257.786 159.275,258.051 159.452,258.374 159.452 C 258.697 159.452,258.974 159.672,258.989 159.941 C 259.004 160.211,259.168 160.078,259.354 159.647 C 259.628 159.009,259.695 158.986,259.718 159.526 C 259.753 160.376,260.390 160.777,260.758 160.181 C 260.947 159.875,260.871 159.828,260.528 160.040 C 260.137 160.282,260.074 160.132,260.266 159.415 C 260.405 158.896,260.521 152.942,260.524 146.184 L 260.529 133.895 261.473 134.075 C 262.918 134.352,262.298 133.368,260.596 132.684 C 259.583 132.277,259.010 132.227,258.659 132.514 C 258.277 132.826,258.224 132.755,258.433 132.211 C 258.655 131.632,258.568 131.553,257.964 131.784 C 257.556 131.941,257.341 131.950,257.486 131.806 C 257.869 131.423,256.811 130.486,255.826 130.336 C 255.360 130.265,254.842 129.984,254.674 129.712 C 254.506 129.440,254.212 129.205,254.021 129.189 C 253.136 129.116,252.302 128.772,252.302 128.481 C 252.302 128.305,251.685 127.937,250.930 127.665 C 250.176 127.392,249.559 127.028,249.559 126.856 C 249.559 126.683,249.339 126.540,249.070 126.536 C 248.800 126.532,247.610 126.018,246.425 125.392 C 245.240 124.766,243.477 123.844,242.507 123.342 C 241.538 122.840,240.656 122.341,240.548 122.233 C 240.441 122.126,239.736 121.732,238.981 121.359 C 238.227 120.987,236.889 120.281,236.007 119.792 C 235.126 119.303,233.585 118.550,232.583 118.119 C 231.581 117.689,230.760 117.204,230.758 117.042 C 230.756 116.881,230.562 116.748,230.326 116.748 C 230.091 116.748,229.450 116.396,228.902 115.965 C 228.354 115.534,227.592 115.181,227.208 115.181 C 226.824 115.181,226.451 115.049,226.379 114.887 C 226.205 114.496,222.059 112.439,221.444 112.439 C 221.178 112.439,220.960 112.304,220.960 112.140 C 220.960 111.976,220.602 111.667,220.165 111.454 C 216.052 109.454,211.729 107.140,211.623 106.881 C 211.551 106.706,211.154 106.562,210.741 106.562 C 210.328 106.562,209.990 106.375,209.990 106.147 C 209.990 105.919,209.814 105.841,209.598 105.975 C 209.383 106.108,209.207 106.030,209.207 105.802 C 209.207 105.574,208.955 105.387,208.647 105.387 C 208.339 105.387,207.850 105.167,207.560 104.897 C 206.848 104.237,203.647 102.642,203.036 102.643 C 202.767 102.644,202.547 102.498,202.547 102.318 C 202.547 101.897,202.196 101.838,198.433 101.624 C 195.577 101.462,195.090 101.548,192.948 102.586 M266.405 136.271 C 266.729 136.471,267.434 136.752,267.973 136.896 C 268.653 137.078,268.773 137.047,268.364 136.795 C 268.041 136.595,267.336 136.314,266.797 136.170 C 266.117 135.988,265.997 136.018,266.405 136.271 M261.508 161.214 C 261.939 161.523,262.512 161.965,262.782 162.196 C 263.150 162.513,263.271 162.422,263.271 161.830 C 263.271 161.317,263.081 161.116,262.723 161.253 C 262.422 161.369,262.059 161.275,261.917 161.045 C 261.774 160.815,261.448 160.632,261.191 160.639 C 260.935 160.646,261.077 160.905,261.508 161.214 M262.364 166.405 C 262.104 166.854,262.107 171.716,262.366 171.457 C 262.590 171.233,262.856 166.112,262.643 166.112 C 262.583 166.112,262.457 166.244,262.364 166.405 M261.791 174.564 C 261.783 175.981,261.822 177.083,261.878 177.013 C 262.298 176.487,262.784 174.352,262.434 174.568 C 262.160 174.738,262.084 174.344,262.211 173.406 C 262.316 172.626,262.267 171.988,262.104 171.988 C 261.940 171.988,261.799 173.147,261.791 174.564 M261.443 178.771 C 261.443 179.034,261.322 179.732,261.174 180.320 C 261.013 180.962,261.066 181.391,261.305 181.391 C 261.525 181.391,261.704 181.577,261.704 181.806 C 261.704 182.034,261.501 182.095,261.252 181.941 C 260.969 181.766,260.906 181.834,261.083 182.120 C 261.239 182.372,261.575 182.475,261.829 182.348 C 262.084 182.220,261.997 182.359,261.636 182.657 C 260.680 183.444,260.317 188.404,261.225 188.271 C 261.907 188.171,262.409 187.267,261.783 187.267 C 261.264 187.267,261.258 184.017,261.777 183.697 C 262.441 183.286,262.485 181.474,261.838 181.225 C 261.498 181.095,261.385 180.806,261.563 180.519 C 261.955 179.885,262.039 178.659,261.705 178.453 C 261.561 178.364,261.443 178.507,261.443 178.771 M194.417 181.795 C 193.932 181.990,193.533 182.023,193.530 181.868 C 193.526 181.713,193.394 181.763,193.236 181.978 C 192.906 182.427,191.822 183.138,190.402 183.838 C 189.863 184.103,189.189 184.542,188.904 184.814 C 188.620 185.086,188.170 185.309,187.905 185.309 C 187.641 185.309,187.204 185.529,186.934 185.798 C 186.665 186.068,186.321 186.289,186.170 186.289 C 186.020 186.290,185.262 186.775,184.488 187.367 C 183.713 187.958,182.788 188.443,182.431 188.443 C 182.074 188.443,181.783 188.602,181.783 188.796 C 181.783 188.990,181.004 189.471,180.052 189.865 C 179.100 190.258,178.405 190.716,178.508 190.883 C 178.611 191.049,178.420 191.185,178.084 191.185 C 177.748 191.185,177.114 191.544,176.675 191.983 C 176.236 192.422,175.680 192.659,175.439 192.510 C 175.185 192.353,175.110 192.416,175.261 192.660 C 175.414 192.907,174.954 193.268,174.148 193.534 C 173.392 193.783,172.506 194.371,172.178 194.839 C 171.850 195.307,171.497 195.646,171.393 195.593 C 170.858 195.314,170.412 195.556,170.669 195.984 C 170.888 196.349,170.803 196.344,170.333 195.964 C 169.798 195.530,169.665 195.573,169.451 196.250 C 169.312 196.687,168.988 197.005,168.732 196.956 C 168.476 196.906,168.318 197.109,168.381 197.406 C 168.459 197.774,168.242 197.879,167.695 197.736 C 167.254 197.621,166.985 197.674,167.097 197.855 C 167.208 198.035,167.121 198.294,166.902 198.429 C 166.645 198.588,166.503 203.346,166.503 211.843 C 166.503 223.547,166.431 225.091,165.855 225.728 C 165.467 226.157,165.388 226.445,165.659 226.445 C 165.908 226.445,166.112 226.278,166.112 226.075 C 166.112 225.872,166.469 225.775,166.906 225.859 C 167.342 225.943,167.596 225.845,167.470 225.641 C 167.242 225.271,167.786 225.111,168.795 225.249 C 169.086 225.289,169.216 225.146,169.084 224.932 C 168.951 224.718,169.198 224.429,169.632 224.292 C 170.066 224.154,170.421 223.789,170.421 223.480 C 170.421 223.171,170.597 222.919,170.813 222.919 C 171.028 222.919,171.205 223.108,171.205 223.338 C 171.205 223.569,171.483 223.480,171.824 223.139 C 172.165 222.798,172.633 222.637,172.864 222.780 C 173.103 222.928,173.172 222.857,173.022 222.616 C 172.756 222.185,177.178 219.680,177.630 220.006 C 177.759 220.100,177.770 220.052,177.653 219.900 C 177.454 219.638,178.514 218.974,181.195 217.680 C 181.841 217.369,182.811 216.775,183.350 216.361 C 184.288 215.640,185.871 214.898,185.919 215.156 C 185.932 215.224,186.518 214.794,187.222 214.202 C 187.927 213.609,188.759 213.124,189.073 213.124 C 189.386 213.124,189.744 212.861,189.867 212.539 C 189.991 212.217,190.229 212.038,190.397 212.142 C 190.564 212.245,191.139 211.986,191.674 211.565 C 192.209 211.144,192.734 210.886,192.840 210.992 C 192.946 211.098,193.255 210.916,193.528 210.587 C 193.800 210.259,194.277 209.990,194.586 209.990 C 194.896 209.990,195.049 209.828,194.927 209.630 C 194.804 209.432,195.236 209.154,195.886 209.011 C 196.537 208.868,196.968 208.589,196.846 208.391 C 196.286 207.484,199.713 208.501,201.175 209.675 C 202.317 210.592,205.796 212.716,206.544 212.954 C 207.019 213.105,207.630 213.425,207.902 213.666 C 208.862 214.516,209.413 214.898,210.382 215.383 C 210.921 215.653,211.978 216.248,212.733 216.706 C 214.810 217.968,217.903 219.724,219.001 220.265 C 219.540 220.530,220.121 220.972,220.294 221.245 C 220.466 221.519,220.863 221.743,221.175 221.743 C 221.488 221.743,221.743 221.906,221.743 222.104 C 221.743 222.302,222.272 222.581,222.919 222.723 C 223.565 222.865,224.094 223.148,224.094 223.351 C 224.094 223.555,224.491 223.891,224.976 224.099 C 225.460 224.306,226.915 225.100,228.208 225.862 C 229.500 226.625,231.043 227.459,231.636 227.716 C 232.228 227.973,232.713 228.321,232.713 228.489 C 232.713 228.658,232.915 228.795,233.162 228.795 C 233.409 228.795,234.513 229.368,235.614 230.069 C 236.716 230.769,237.968 231.563,238.397 231.834 C 238.826 232.105,239.618 232.545,240.157 232.811 C 240.695 233.077,241.312 233.439,241.528 233.616 C 241.743 233.792,242.611 234.345,243.456 234.844 C 244.932 235.717,244.956 235.763,244.077 236.042 C 243.573 236.202,242.033 237.105,240.655 238.049 C 239.276 238.993,237.996 239.765,237.809 239.765 C 237.623 239.765,237.237 239.985,236.953 240.255 C 236.668 240.524,235.906 241.000,235.260 241.313 C 234.613 241.626,232.915 242.640,231.485 243.566 C 230.055 244.492,228.689 245.250,228.449 245.250 C 228.208 245.250,228.012 245.384,228.012 245.549 C 228.012 245.845,227.636 246.086,225.435 247.201 C 224.805 247.519,224.160 247.960,224.002 248.180 C 223.844 248.400,223.712 248.427,223.708 248.239 C 223.705 248.052,223.097 248.361,222.357 248.925 C 221.617 249.489,220.925 249.951,220.818 249.951 C 220.533 249.951,215.705 252.820,215.475 253.126 C 215.235 253.446,211.333 255.665,209.998 256.241 C 209.464 256.472,208.935 256.799,208.823 256.968 C 208.711 257.137,207.812 257.723,206.825 258.270 C 203.537 260.091,203.135 260.331,202.930 260.602 C 202.818 260.750,202.289 261.068,201.755 261.308 C 199.986 262.103,198.436 262.996,198.200 263.355 C 198.071 263.550,196.837 263.048,195.457 262.239 C 194.077 261.430,192.880 260.818,192.796 260.878 C 192.712 260.938,192.536 260.814,192.404 260.602 C 192.272 260.391,191.301 259.759,190.245 259.198 C 189.190 258.637,188.484 258.171,188.678 258.163 C 188.872 258.154,188.419 257.882,187.672 257.558 C 186.925 257.234,186.219 256.830,186.105 256.661 C 185.990 256.491,185.015 255.929,183.937 255.412 C 182.860 254.895,181.450 254.091,180.803 253.626 C 180.157 253.160,178.702 252.301,177.571 251.716 C 176.440 251.131,175.514 250.484,175.514 250.279 C 175.514 250.073,175.356 250.002,175.163 250.122 C 174.971 250.241,174.711 250.073,174.587 249.749 C 174.462 249.425,174.224 249.185,174.056 249.216 C 173.193 249.375,171.094 248.567,170.187 247.727 C 169.622 247.202,169.062 246.870,168.944 246.988 C 168.827 247.105,168.516 247.024,168.254 246.807 C 166.626 245.455,166.503 246.305,166.503 258.955 C 166.503 265.584,166.393 271.560,166.259 272.233 C 166.046 273.297,166.123 273.457,166.846 273.457 C 167.304 273.457,167.679 273.644,167.679 273.872 C 167.679 274.100,167.856 274.177,168.074 274.043 C 168.482 273.791,169.740 274.791,169.419 275.113 C 169.319 275.213,170.023 275.619,170.983 276.015 C 171.944 276.411,172.649 276.865,172.551 277.023 C 172.453 277.182,172.903 277.428,173.551 277.570 C 174.199 277.712,174.980 278.187,175.287 278.624 C 175.593 279.061,176.034 279.301,176.266 279.157 C 176.499 279.014,176.690 279.050,176.690 279.238 C 176.690 279.427,177.307 279.875,178.061 280.235 C 178.815 280.594,179.432 281.068,179.432 281.287 C 179.432 281.505,179.795 281.685,180.239 281.685 C 180.682 281.685,180.936 281.861,180.803 282.076 C 180.670 282.292,180.831 282.468,181.161 282.468 C 181.794 282.468,187.762 285.980,187.986 286.484 C 188.057 286.645,188.366 286.778,188.671 286.778 C 188.976 286.778,189.226 286.954,189.226 287.169 C 189.226 287.385,189.358 287.522,189.520 287.473 C 189.682 287.425,190.607 287.760,191.577 288.219 C 195.531 290.087,195.994 290.214,198.446 290.105 C 200.659 290.006,205.661 288.158,206.464 287.143 C 206.768 286.759,208.588 285.819,208.875 285.898 C 209.016 285.937,209.346 285.710,209.609 285.394 C 209.871 285.078,210.256 284.819,210.464 284.819 C 210.839 284.819,214.313 282.512,214.695 282.010 C 214.805 281.865,215.378 281.626,215.969 281.477 C 216.559 281.329,217.042 281.089,217.042 280.943 C 217.042 280.797,218.056 280.155,219.295 279.516 C 220.534 278.877,221.606 278.222,221.678 278.061 C 221.750 277.899,221.961 277.767,222.148 277.767 C 222.335 277.767,223.271 277.238,224.229 276.592 C 225.187 275.945,226.107 275.416,226.275 275.416 C 226.442 275.416,226.857 275.170,227.197 274.868 C 227.888 274.256,231.597 272.124,233.097 271.477 C 233.631 271.246,234.160 270.937,234.272 270.788 C 234.750 270.157,237.040 268.756,237.594 268.756 C 237.926 268.756,238.198 268.580,238.198 268.364 C 238.198 268.149,238.468 267.973,238.798 267.973 C 239.128 267.973,239.495 267.719,239.614 267.409 C 239.733 267.099,240.343 266.733,240.968 266.595 C 241.594 266.458,242.206 266.185,242.326 265.989 C 242.447 265.794,243.816 264.897,245.367 263.996 C 246.919 263.096,248.276 262.235,248.384 262.084 C 248.492 261.933,249.007 261.676,249.529 261.513 C 250.051 261.350,250.668 261.059,250.900 260.867 C 251.867 260.066,254.323 258.570,254.670 258.570 C 254.876 258.570,255.048 258.438,255.052 258.276 C 255.057 258.115,256.023 257.542,257.199 257.003 C 258.375 256.464,259.341 255.881,259.345 255.707 C 259.350 255.532,259.150 255.515,258.901 255.669 C 258.619 255.844,258.555 255.776,258.732 255.490 C 258.888 255.238,259.179 255.132,259.378 255.255 C 259.576 255.378,260.049 255.279,260.428 255.036 C 261.003 254.666,261.010 254.626,260.469 254.792 C 259.542 255.076,259.292 254.658,259.979 253.971 C 260.491 253.459,260.559 250.424,260.504 230.820 C 260.443 208.929,260.348 206.220,259.704 207.864 C 259.429 208.568,259.407 208.562,259.381 207.770 C 259.366 207.303,259.523 206.863,259.731 206.791 C 259.938 206.719,260.190 205.997,260.290 205.186 C 260.414 204.179,260.335 203.795,260.042 203.977 C 259.768 204.146,259.701 204.010,259.858 203.603 C 259.992 203.251,259.909 202.843,259.671 202.697 C 259.382 202.518,259.306 202.776,259.440 203.477 C 259.550 204.053,259.485 204.620,259.295 204.738 C 258.797 205.045,258.968 210.472,259.496 211.143 C 259.838 211.577,259.828 211.639,259.452 211.413 C 259.182 211.252,258.962 211.271,258.962 211.456 C 258.962 211.641,259.182 212.030,259.452 212.320 C 259.739 212.629,259.757 212.745,259.496 212.599 C 259.251 212.462,258.963 212.656,258.855 213.031 C 258.747 213.406,258.527 214.065,258.366 214.496 L 258.073 215.279 258.701 214.496 C 259.046 214.065,259.348 213.800,259.371 213.908 C 259.654 215.214,259.618 215.401,259.119 215.210 C 258.817 215.094,258.570 215.202,258.570 215.449 C 258.570 215.759,258.402 215.742,258.023 215.393 C 257.723 215.115,257.563 214.746,257.668 214.573 C 257.772 214.400,257.313 214.053,256.647 213.802 C 255.981 213.550,255.436 213.196,255.436 213.015 C 255.436 212.834,255.286 212.779,255.103 212.892 C 254.921 213.005,254.407 212.758,253.961 212.343 C 253.516 211.928,252.696 211.475,252.139 211.335 C 251.582 211.195,251.126 210.936,251.126 210.760 C 251.126 210.583,250.157 209.980,248.972 209.420 C 247.786 208.859,246.817 208.229,246.817 208.020 C 246.817 207.811,246.477 207.640,246.061 207.640 C 245.646 207.640,245.073 207.411,244.788 207.132 C 244.171 206.529,239.579 203.722,239.207 203.722 C 239.065 203.722,238.735 203.546,238.475 203.330 C 237.359 202.407,233.817 200.226,233.025 199.975 C 232.550 199.824,231.921 199.460,231.626 199.165 C 231.331 198.870,230.838 198.629,230.530 198.629 C 230.222 198.629,229.971 198.493,229.971 198.327 C 229.971 198.161,229.133 197.588,228.110 197.054 C 227.086 196.519,226.161 195.994,226.053 195.886 C 225.740 195.574,224.373 194.738,223.310 194.209 C 222.772 193.942,221.626 193.265,220.764 192.707 C 219.902 192.148,218.800 191.566,218.315 191.412 C 217.831 191.258,217.434 190.999,217.434 190.835 C 217.434 190.672,216.377 190.023,215.084 189.392 C 213.792 188.762,212.734 188.134,212.734 187.995 C 212.733 187.857,212.292 187.633,211.753 187.498 C 211.214 187.363,210.774 187.080,210.774 186.868 C 210.774 186.657,210.589 186.484,210.363 186.484 C 210.137 186.484,208.947 185.841,207.719 185.055 C 202.434 181.674,197.641 180.499,194.417 181.795 M260.627 190.611 C 260.755 191.746,260.683 192.260,260.419 192.097 C 260.187 191.953,260.135 192.039,260.296 192.300 C 260.449 192.549,260.720 192.752,260.898 192.752 C 261.356 192.752,261.646 190.941,261.281 190.352 C 261.104 190.064,261.220 189.681,261.561 189.432 C 262.051 189.074,262.007 188.995,261.288 188.940 C 260.500 188.881,260.447 189.014,260.627 190.611 M260.496 193.254 C 260.235 193.939,260.268 196.302,260.530 195.690 C 260.728 195.228,260.877 195.135,260.893 195.462 C 260.934 196.285,261.454 195.607,261.596 194.545 C 261.689 193.846,260.709 192.696,260.496 193.254 M260.039 200.074 C 259.624 200.183,259.354 200.628,259.354 201.204 C 259.354 202.455,259.564 202.403,260.274 200.979 C 260.597 200.333,260.830 199.825,260.793 199.850 C 260.755 199.875,260.416 199.976,260.039 200.074 M270.326 250.614 C 270.329 250.936,272.326 251.996,272.535 251.787 C 272.598 251.724,272.126 251.364,271.486 250.986 C 270.847 250.608,270.325 250.441,270.326 250.614 M265.622 251.453 C 265.622 251.704,265.368 251.910,265.057 251.910 C 264.747 251.910,264.384 252.086,264.251 252.302 C 263.898 252.873,264.569 252.781,265.449 252.138 C 265.866 251.832,266.076 251.450,265.915 251.289 C 265.754 251.128,265.622 251.201,265.622 251.453 M261.391 253.164 C 260.751 253.803,260.800 254.261,261.508 254.261 C 261.832 254.261,262.096 254.104,262.096 253.912 C 262.096 253.721,262.386 253.589,262.739 253.618 C 263.093 253.648,263.475 253.408,263.587 253.085 C 263.761 252.581,263.698 252.574,263.139 253.035 C 262.716 253.385,262.488 253.419,262.488 253.133 C 262.488 252.559,261.981 252.573,261.391 253.164 M262.488 309.305 C 261.958 309.942,262.085 310.022,263.043 309.654 C 263.384 309.524,263.663 309.259,263.663 309.067 C 263.663 308.525,263.028 308.653,262.488 309.305 M259.793 311.030 C 259.461 311.240,259.377 311.577,259.574 311.905 C 259.842 312.350,259.786 312.350,259.233 311.901 C 258.664 311.439,258.570 311.450,258.570 311.976 C 258.570 312.313,258.366 312.714,258.118 312.868 C 257.837 313.041,257.772 312.975,257.945 312.695 C 258.435 311.903,257.488 312.206,255.693 313.418 C 254.735 314.065,253.756 314.594,253.518 314.594 C 253.280 314.594,253.082 314.726,253.079 314.887 C 253.075 315.049,251.841 315.794,250.336 316.543 C 248.832 317.293,247.600 318.042,247.600 318.208 C 247.600 318.375,247.363 318.511,247.073 318.511 C 246.782 318.511,246.138 318.864,245.642 319.295 C 245.145 319.726,244.501 320.078,244.210 320.078 C 243.920 320.078,243.683 320.215,243.683 320.381 C 243.683 320.548,243.035 321.032,242.242 321.458 C 241.450 321.884,240.613 322.409,240.381 322.625 C 240.150 322.840,238.859 323.546,237.513 324.192 C 236.167 324.838,235.065 325.459,235.065 325.571 C 235.064 325.684,234.229 326.212,233.210 326.747 C 232.190 327.281,231.120 327.938,230.831 328.208 C 230.543 328.477,230.136 328.697,229.927 328.697 C 229.719 328.697,228.632 329.314,227.512 330.069 C 226.392 330.823,225.253 331.440,224.981 331.440 C 224.709 331.440,224.486 331.577,224.486 331.746 C 224.486 331.914,224.001 332.260,223.408 332.515 C 222.229 333.022,220.876 333.843,220.568 334.237 C 220.460 334.375,219.579 334.894,218.609 335.389 C 217.640 335.884,215.967 336.873,214.893 337.586 C 213.818 338.300,212.716 338.883,212.444 338.883 C 212.172 338.883,211.949 339.021,211.949 339.189 C 211.949 339.358,211.464 339.704,210.872 339.959 C 209.823 340.410,208.427 341.229,208.031 341.626 C 207.924 341.735,207.307 342.087,206.660 342.410 C 206.014 342.733,205.190 343.262,204.830 343.585 C 204.470 343.909,203.147 344.692,201.892 345.326 C 200.636 345.960,199.369 346.715,199.077 347.004 C 198.350 347.723,193.275 345.553,192.817 344.326 C 192.746 344.134,192.517 343.976,192.310 343.976 C 191.975 343.976,190.265 343.013,183.794 339.179 C 182.795 338.587,181.538 337.885,180.999 337.620 C 180.460 337.354,179.894 336.957,179.740 336.737 C 179.586 336.517,179.322 336.329,179.152 336.319 C 178.585 336.287,175.720 334.659,174.769 333.829 C 174.251 333.377,173.512 333.007,173.126 333.007 C 172.740 333.007,172.128 332.610,171.766 332.125 C 171.353 331.572,171.192 331.492,171.332 331.910 C 171.490 332.378,171.389 332.511,170.991 332.358 C 170.680 332.239,170.516 331.996,170.626 331.818 C 170.736 331.640,170.647 331.383,170.428 331.248 C 170.209 331.112,170.029 331.199,170.029 331.440 C 170.029 331.681,169.853 331.769,169.638 331.636 C 169.422 331.502,169.246 331.087,169.246 330.713 C 169.246 330.224,168.941 330.040,168.168 330.061 C 167.576 330.077,166.958 329.909,166.795 329.687 C 166.633 329.466,166.513 335.487,166.530 343.067 L 166.560 356.849 167.510 357.954 C 168.033 358.562,168.462 358.827,168.462 358.542 C 168.462 358.145,168.600 358.162,169.052 358.614 C 169.377 358.939,169.994 359.316,170.423 359.452 C 170.853 359.589,171.205 359.875,171.205 360.089 C 171.205 360.302,171.367 360.377,171.565 360.255 C 171.763 360.132,172.160 360.256,172.446 360.530 C 173.307 361.354,175.297 362.570,175.623 362.473 C 175.791 362.423,176.029 362.648,176.154 362.972 C 176.278 363.296,176.526 363.471,176.704 363.360 C 176.882 363.250,177.304 363.555,177.642 364.038 C 177.980 364.520,178.257 364.760,178.257 364.571 C 178.257 364.382,178.609 364.546,179.040 364.936 C 179.471 365.326,179.824 365.503,179.824 365.328 C 179.824 365.154,180.132 365.282,180.509 365.613 C 180.886 365.944,181.594 366.337,182.082 366.485 C 182.570 366.634,182.865 366.924,182.739 367.129 C 182.612 367.334,182.653 367.456,182.831 367.399 C 183.008 367.342,184.235 367.955,185.556 368.761 C 186.877 369.566,188.074 370.225,188.217 370.225 C 188.359 370.225,188.739 370.446,189.060 370.715 C 190.404 371.840,190.677 372.023,192.106 372.754 C 195.852 374.669,204.368 373.841,205.867 371.416 C 206.010 371.185,206.292 371.098,206.494 371.223 C 206.696 371.348,206.963 371.185,207.087 370.862 C 207.212 370.538,207.840 370.157,208.484 370.016 C 209.128 369.875,209.564 369.669,209.454 369.558 C 209.344 369.448,210.257 368.825,211.483 368.175 C 212.709 367.524,213.771 366.838,213.843 366.649 C 213.914 366.461,214.292 366.308,214.682 366.308 C 215.072 366.308,215.486 366.060,215.603 365.757 C 215.719 365.454,216.355 365.087,217.016 364.942 C 217.677 364.797,218.217 364.516,218.217 364.318 C 218.217 364.119,218.487 363.957,218.817 363.957 C 219.147 363.957,219.515 363.703,219.634 363.393 C 219.753 363.083,220.364 362.717,220.993 362.579 C 221.621 362.440,222.135 362.177,222.135 361.993 C 222.135 361.809,222.524 361.536,222.998 361.385 C 223.473 361.234,224.103 360.870,224.398 360.575 C 224.692 360.280,225.185 360.039,225.493 360.039 C 225.801 360.039,226.053 359.875,226.053 359.674 C 226.053 359.473,226.422 359.191,226.873 359.048 C 227.324 358.905,228.452 358.276,229.379 357.650 C 230.305 357.025,231.246 356.513,231.469 356.513 C 231.691 356.513,232.106 356.282,232.391 356.000 C 232.676 355.718,233.879 354.976,235.064 354.351 C 236.249 353.726,237.747 352.856,238.394 352.416 C 239.911 351.385,241.737 350.346,242.605 350.020 C 242.982 349.878,243.291 349.606,243.291 349.416 C 243.291 349.225,243.543 349.070,243.851 349.070 C 244.158 349.070,244.674 348.806,244.996 348.483 C 245.319 348.161,245.992 347.708,246.494 347.477 C 247.936 346.811,249.652 345.812,250.991 344.857 C 251.671 344.373,252.344 343.976,252.487 343.976 C 252.631 343.976,253.485 343.486,254.386 342.887 C 255.287 342.288,256.502 341.556,257.088 341.261 C 257.673 340.966,258.059 340.574,257.946 340.391 C 257.833 340.208,258.164 340.059,258.682 340.059 C 259.200 340.059,259.916 339.736,260.272 339.342 C 260.933 338.612,261.159 337.906,260.627 338.235 C 260.089 338.568,260.450 311.766,260.989 311.294 C 261.254 311.062,261.215 311.224,260.902 311.655 C 260.377 312.378,260.386 312.397,261.014 311.905 C 262.157 311.009,261.063 310.225,259.793 311.030 M272.960 331.598 C 271.742 332.331,270.518 333.023,270.240 333.134 C 269.938 333.255,269.913 333.349,270.178 333.368 C 270.566 333.395,274.779 331.032,275.336 330.475 C 275.842 329.969,275.018 330.358,272.960 331.598 M265.524 335.628 C 265.147 335.726,264.838 335.970,264.838 336.170 C 264.838 336.696,265.362 336.616,266.233 335.958 C 266.995 335.381,266.805 335.293,265.524 335.628 M261.312 337.284 C 261.312 337.481,261.533 337.732,261.802 337.840 C 262.194 337.999,262.194 338.044,261.802 338.069 C 261.533 338.086,261.312 338.314,261.312 338.576 C 261.312 338.884,261.536 338.828,261.946 338.417 C 262.295 338.069,262.461 337.590,262.315 337.354 C 261.993 336.833,261.312 336.785,261.312 337.284 " stroke="none" fill="#814c9e" fill-rule="evenodd"></path><path id="path2" d="M173.359 29.053 C 172.282 29.725,171.345 30.417,171.277 30.590 C 171.210 30.764,170.901 30.809,170.592 30.690 C 170.282 30.572,170.029 30.670,170.029 30.908 C 170.029 31.605,170.771 31.414,172.149 30.362 C 172.856 29.824,173.593 29.379,173.788 29.374 C 174.285 29.362,176.190 27.834,175.710 27.832 C 175.495 27.831,174.437 28.381,173.359 29.053 M166.899 33.100 C 166.633 33.421,166.265 33.592,166.083 33.479 C 165.698 33.241,164.348 33.944,163.044 35.064 C 162.542 35.495,162.013 35.799,161.869 35.740 C 161.577 35.622,158.978 36.873,158.666 37.282 C 158.557 37.425,156.970 38.295,155.140 39.214 C 153.309 40.133,151.724 40.986,151.616 41.109 C 151.422 41.329,150.157 42.032,147.111 43.611 C 146.249 44.058,145.455 44.522,145.348 44.641 C 145.240 44.760,144.094 45.380,142.801 46.019 C 141.508 46.657,140.362 47.276,140.255 47.394 C 140.147 47.512,139.089 48.102,137.904 48.706 C 135.374 49.996,134.257 50.643,133.986 50.976 C 133.879 51.108,133.350 51.353,132.811 51.519 C 132.272 51.686,131.411 52.150,130.897 52.551 C 130.383 52.953,129.737 53.281,129.461 53.281 C 129.185 53.281,128.900 53.413,128.828 53.575 C 128.756 53.737,127.331 54.574,125.661 55.435 C 123.991 56.297,122.625 57.134,122.625 57.296 C 122.625 57.458,122.373 57.591,122.065 57.591 C 121.757 57.591,121.265 57.811,120.972 58.080 C 120.678 58.350,119.475 59.072,118.299 59.685 C 113.793 62.033,109.492 64.387,109.305 64.608 C 109.197 64.735,107.698 65.544,105.975 66.405 C 104.251 67.267,102.782 68.105,102.710 68.266 C 102.638 68.428,102.401 68.560,102.183 68.560 C 101.964 68.560,101.318 68.892,100.746 69.298 C 100.174 69.704,98.667 70.597,97.398 71.282 C 92.438 73.960,91.438 74.518,90.304 75.235 C 89.657 75.644,88.599 76.232,87.953 76.540 C 87.307 76.849,86.333 77.529,85.791 78.052 C 85.248 78.575,84.608 78.937,84.370 78.858 C 84.131 78.778,83.828 78.994,83.696 79.338 C 83.534 79.761,83.613 79.874,83.942 79.689 C 84.320 79.475,84.319 79.531,83.937 79.943 C 83.122 80.821,83.242 104.729,84.065 105.412 C 84.577 105.836,84.744 105.828,85.039 105.362 C 85.234 105.052,85.397 104.942,85.400 105.116 C 85.406 105.421,89.684 103.346,90.891 102.453 C 91.214 102.214,92.449 101.587,93.634 101.060 C 94.819 100.532,95.983 99.918,96.221 99.695 C 96.459 99.472,98.046 98.598,99.747 97.754 C 101.448 96.910,102.929 96.122,103.036 96.003 C 103.144 95.885,104.114 95.361,105.191 94.840 C 106.268 94.319,107.238 93.781,107.346 93.644 C 107.453 93.507,108.335 92.984,109.305 92.481 C 110.274 91.978,111.949 91.089,113.026 90.505 C 116.000 88.892,119.917 86.773,121.449 85.948 C 122.203 85.543,122.908 85.122,123.016 85.015 C 123.124 84.907,124.711 84.037,126.543 83.083 C 128.374 82.128,130.402 81.031,131.048 80.647 C 131.694 80.262,133.193 79.459,134.378 78.862 C 135.563 78.266,136.621 77.687,136.729 77.576 C 136.909 77.391,139.545 75.944,142.409 74.459 C 143.055 74.123,143.672 73.761,143.780 73.653 C 143.888 73.546,144.858 73.017,145.935 72.478 C 147.013 71.939,147.982 71.391,148.090 71.260 C 148.198 71.128,149.785 70.247,151.616 69.301 C 153.448 68.355,155.034 67.493,155.142 67.385 C 155.250 67.277,155.955 66.864,156.709 66.467 C 159.089 65.213,160.424 64.453,160.627 64.240 C 160.735 64.126,161.585 63.697,162.516 63.286 C 163.448 62.875,164.461 62.180,164.769 61.741 C 165.076 61.301,165.328 61.170,165.328 61.448 C 165.328 61.791,165.694 61.693,166.466 61.143 C 167.092 60.698,167.768 60.333,167.968 60.333 C 168.168 60.333,168.332 60.071,168.332 59.752 C 168.332 59.187,167.535 59.550,166.885 60.410 C 166.771 60.561,166.419 60.516,166.101 60.312 C 165.661 60.029,165.637 59.868,166.003 59.631 C 166.364 59.397,166.491 56.174,166.514 46.612 C 166.542 35.537,166.626 33.814,167.173 33.210 C 167.518 32.829,167.706 32.517,167.592 32.517 C 167.477 32.517,167.165 32.780,166.899 33.100 M172.467 57.417 C 171.987 57.753,171.419 57.919,171.204 57.786 C 170.989 57.653,170.813 57.741,170.813 57.982 C 170.813 58.223,170.681 58.350,170.519 58.264 C 170.357 58.177,169.917 58.431,169.540 58.828 C 169.163 59.225,168.924 59.549,169.010 59.549 C 169.345 59.549,173.947 57.166,173.947 56.992 C 173.947 56.635,173.330 56.813,172.467 57.417 M170.029 114.473 C 169.275 114.944,168.422 115.371,168.133 115.422 C 167.843 115.473,167.502 115.620,167.373 115.748 C 167.244 115.877,167.481 115.920,167.898 115.844 C 169.008 115.643,171.596 114.305,171.596 113.933 C 171.596 113.498,171.584 113.503,170.029 114.473 M165.132 116.974 C 164.486 117.311,163.816 117.839,163.644 118.147 C 163.471 118.455,163.064 118.707,162.738 118.707 C 162.216 118.707,159.131 120.081,157.493 121.044 C 153.889 123.161,152.805 123.742,151.986 123.998 C 151.459 124.163,150.940 124.406,150.833 124.539 C 150.627 124.792,144.882 127.843,142.703 128.856 C 142.003 129.182,141.430 129.588,141.430 129.758 C 141.430 129.929,141.090 130.069,140.674 130.069 C 140.259 130.069,139.686 130.290,139.401 130.561 C 139.116 130.832,137.561 131.710,135.945 132.512 C 131.671 134.634,127.984 136.622,127.441 137.098 C 127.180 137.326,126.775 137.512,126.539 137.512 C 126.015 137.512,123.061 139.090,122.322 139.765 C 122.027 140.034,121.629 140.255,121.439 140.255 C 121.248 140.255,120.199 140.781,119.108 141.425 C 118.017 142.068,116.687 142.704,116.153 142.838 C 115.618 142.972,115.181 143.239,115.181 143.431 C 115.181 143.623,115.008 143.781,114.797 143.781 C 113.636 143.781,110.850 146.546,109.468 149.070 C 106.297 154.858,108.043 161.451,113.718 165.120 C 116.587 166.975,122.273 167.428,124.780 166.002 C 125.426 165.634,126.249 165.332,126.608 165.331 C 126.967 165.329,127.320 165.196,127.391 165.034 C 127.463 164.873,129.109 163.947,131.048 162.977 C 132.987 162.008,134.662 161.126,134.770 161.019 C 134.978 160.810,137.090 159.690,142.801 156.758 C 144.740 155.763,146.415 154.859,146.523 154.751 C 146.631 154.643,147.600 154.114,148.678 153.575 C 149.755 153.036,150.695 152.463,150.767 152.302 C 150.839 152.140,151.082 152.008,151.307 152.008 C 152.000 152.008,156.709 149.570,156.709 149.212 C 156.709 149.026,156.843 148.918,157.007 148.972 C 157.381 149.095,162.735 146.431,162.912 146.033 C 162.984 145.872,163.293 145.739,163.598 145.739 C 163.903 145.739,164.153 145.534,164.153 145.282 C 164.153 145.031,164.264 144.937,164.400 145.073 C 164.755 145.428,166.176 144.593,165.920 144.180 C 165.803 143.990,165.877 143.730,166.085 143.601 C 166.314 143.459,166.475 138.351,166.493 130.617 C 166.513 122.100,166.391 117.947,166.126 118.111 C 165.893 118.255,165.825 118.105,165.962 117.748 C 166.090 117.414,166.353 117.140,166.545 117.140 C 166.738 117.140,166.895 116.964,166.895 116.748 C 166.895 116.209,166.504 116.259,165.132 116.974 M172.870 140.267 C 172.385 140.462,172.002 140.847,172.019 141.124 C 172.043 141.517,172.093 141.519,172.248 141.136 C 172.356 140.867,172.685 140.646,172.977 140.646 C 173.270 140.646,173.618 140.470,173.751 140.255 C 174.032 139.800,174.030 139.800,172.870 140.267 M170.514 141.644 C 170.038 141.978,169.337 142.198,168.957 142.134 C 168.569 142.069,168.309 142.232,168.364 142.507 C 168.453 142.950,167.975 143.168,167.189 143.043 C 167.027 143.018,166.895 143.239,166.895 143.536 C 166.895 144.097,170.073 142.810,170.356 142.134 C 170.428 141.962,170.736 141.822,171.041 141.822 C 171.347 141.822,171.596 141.645,171.596 141.430 C 171.596 140.917,171.534 140.930,170.514 141.644 M167.682 197.253 C 167.416 197.574,167.063 197.753,166.897 197.650 C 166.731 197.548,166.150 197.814,165.606 198.242 C 165.062 198.670,164.424 199.021,164.189 199.021 C 163.954 199.021,163.761 199.197,163.761 199.412 C 163.761 199.628,163.567 199.804,163.330 199.804 C 162.912 199.804,159.708 201.629,156.513 203.687 C 155.651 204.242,154.505 204.923,153.967 205.199 C 153.428 205.476,152.632 205.918,152.197 206.181 C 151.762 206.445,149.471 207.792,147.104 209.175 C 144.737 210.558,142.742 211.836,142.671 212.015 C 142.599 212.194,142.357 212.341,142.134 212.341 C 141.753 212.341,134.411 216.562,133.986 217.025 C 133.879 217.143,132.953 217.648,131.929 218.147 C 130.906 218.647,130.069 219.220,130.069 219.420 C 130.069 219.621,129.871 219.785,129.630 219.785 C 129.226 219.785,121.897 223.981,121.450 224.468 C 121.342 224.586,120.548 225.034,119.687 225.465 C 118.825 225.896,117.414 226.711,116.552 227.275 C 115.690 227.840,114.192 228.734,113.222 229.261 C 110.153 230.931,108.918 231.725,108.915 232.027 C 108.914 232.189,108.723 232.321,108.491 232.321 C 108.145 232.321,105.434 233.827,101.797 236.038 C 98.360 238.128,96.796 238.981,96.403 238.981 C 96.147 238.981,96.047 239.158,96.180 239.373 C 96.313 239.589,96.231 239.765,95.997 239.765 C 95.763 239.765,93.963 240.735,91.997 241.920 C 90.031 243.105,88.354 244.074,88.269 244.074 C 88.185 244.074,87.903 244.248,87.643 244.460 C 85.190 246.461,84.579 246.836,84.179 246.589 C 83.891 246.410,83.823 246.473,83.998 246.756 C 84.152 247.005,84.091 247.209,83.862 247.209 C 83.299 247.209,83.282 273.309,83.846 273.657 C 84.065 273.793,84.124 274.111,83.978 274.366 C 83.832 274.620,84.149 274.432,84.683 273.947 C 85.216 273.462,85.906 273.060,86.215 273.053 C 86.525 273.046,87.659 272.520,88.737 271.884 C 89.814 271.248,91.048 270.567,91.479 270.369 C 91.910 270.172,92.905 269.569,93.691 269.030 C 94.477 268.492,95.535 267.921,96.042 267.763 C 96.549 267.605,97.052 267.347,97.160 267.189 C 97.267 267.032,99.017 265.954,101.048 264.794 C 103.079 263.633,105.371 262.287,106.141 261.802 C 106.911 261.317,108.026 260.726,108.619 260.490 C 109.212 260.254,109.696 259.901,109.696 259.707 C 109.696 259.513,109.886 259.354,110.118 259.354 C 110.349 259.354,111.776 258.604,113.288 257.689 C 114.800 256.773,116.858 255.562,117.862 254.999 C 118.865 254.435,120.242 253.642,120.921 253.236 C 126.415 249.950,126.772 249.850,128.395 251.126 C 128.942 251.557,129.631 251.910,129.926 251.910 C 130.220 251.910,130.460 252.042,130.460 252.204 C 130.460 252.366,131.298 252.937,132.321 253.472 C 133.345 254.007,134.415 254.668,134.700 254.940 C 134.985 255.213,135.455 255.436,135.745 255.436 C 136.034 255.436,136.330 255.587,136.402 255.773 C 136.519 256.074,139.608 257.936,143.389 259.982 C 144.143 260.391,144.848 260.837,144.956 260.973 C 145.064 261.110,146.181 261.777,147.440 262.457 C 148.698 263.136,150.196 264.001,150.770 264.379 C 152.366 265.431,153.201 265.909,155.436 267.050 C 156.567 267.627,157.493 268.247,157.493 268.428 C 157.493 268.608,157.733 268.756,158.027 268.756 C 158.322 268.756,159.027 269.122,159.595 269.568 C 160.162 270.015,160.632 270.235,160.639 270.058 C 160.646 269.881,160.867 270.006,161.129 270.337 C 161.733 271.097,164.420 272.674,165.113 272.674 C 165.401 272.674,165.728 272.914,165.841 273.207 C 166.076 273.820,167.679 274.348,167.679 273.812 C 167.679 273.617,167.304 273.457,166.846 273.457 C 166.123 273.457,166.046 273.297,166.259 272.233 C 166.393 271.560,166.503 265.584,166.503 258.955 C 166.503 246.338,166.629 245.458,168.231 246.788 C 168.484 246.997,168.919 247.019,169.213 246.837 C 169.591 246.604,169.400 246.435,168.547 246.248 C 167.890 246.104,167.255 245.732,167.136 245.422 C 167.017 245.112,166.749 244.858,166.539 244.858 C 166.330 244.858,164.694 243.977,162.903 242.900 C 161.112 241.823,159.427 240.941,159.158 240.941 C 158.888 240.941,158.668 240.804,158.668 240.638 C 158.668 240.472,157.831 239.899,156.807 239.365 C 155.784 238.831,154.858 238.297,154.750 238.179 C 154.643 238.061,153.698 237.469,152.651 236.864 L 150.747 235.764 152.455 234.755 C 153.394 234.200,154.221 233.602,154.293 233.426 C 154.365 233.249,154.599 233.105,154.812 233.105 C 155.180 233.105,160.602 230.036,161.019 229.592 C 161.126 229.477,162.052 228.946,163.075 228.412 C 164.099 227.878,164.936 227.324,164.936 227.181 C 164.936 227.038,165.333 226.815,165.818 226.684 C 166.303 226.554,167.140 226.082,167.679 225.636 L 168.658 224.825 167.679 225.326 C 167.140 225.602,166.567 225.790,166.405 225.744 C 166.244 225.699,166.112 225.837,166.112 226.053 C 166.112 226.268,165.908 226.445,165.659 226.445 C 165.387 226.445,165.463 226.161,165.850 225.734 C 166.415 225.110,166.505 223.413,166.596 211.740 C 166.696 198.909,166.726 198.442,167.483 198.042 C 167.914 197.815,168.310 197.413,168.364 197.149 C 168.495 196.510,168.270 196.545,167.682 197.253 M173.109 222.157 C 172.382 222.790,172.352 222.877,172.968 222.562 C 174.297 221.882,174.948 221.364,174.480 221.358 C 174.235 221.354,173.618 221.714,173.109 222.157 M170.421 247.992 C 170.960 248.414,171.665 248.758,171.988 248.758 C 172.377 248.758,172.244 248.499,171.596 247.992 C 171.058 247.571,170.353 247.226,170.029 247.226 C 169.641 247.226,169.773 247.485,170.421 247.992 M168.168 274.339 C 168.258 274.608,168.657 274.892,169.055 274.969 C 169.719 275.098,169.727 275.058,169.148 274.479 C 168.395 273.726,167.943 273.662,168.168 274.339 M108.941 298.576 C 107.987 298.757,107.106 299.062,106.982 299.253 C 106.859 299.444,106.361 299.724,105.877 299.876 C 105.392 300.027,104.995 300.315,104.995 300.516 C 104.995 300.717,104.775 300.888,104.505 300.897 C 103.907 300.915,101.609 303.978,100.874 305.735 C 98.541 311.320,100.977 318.504,106.084 321.100 C 106.886 321.508,107.630 321.930,107.738 322.038 C 107.845 322.146,108.415 322.483,109.004 322.786 C 109.593 323.090,110.423 323.662,110.849 324.059 C 111.274 324.455,111.779 324.780,111.970 324.780 C 112.161 324.780,113.408 325.485,114.742 326.347 C 116.075 327.209,117.337 327.914,117.545 327.914 C 117.753 327.914,117.924 328.090,117.924 328.306 C 117.924 328.521,118.144 328.701,118.413 328.705 C 118.683 328.709,119.785 329.275,120.862 329.963 C 124.009 331.971,125.127 332.622,125.857 332.867 C 126.234 332.994,126.543 333.254,126.543 333.444 C 126.543 333.635,126.780 333.790,127.070 333.790 C 127.361 333.790,128.005 334.143,128.501 334.574 C 128.998 335.005,129.628 335.357,129.900 335.357 C 130.172 335.357,130.454 335.504,130.526 335.683 C 130.657 336.010,134.696 338.519,138.430 340.593 C 139.541 341.211,140.539 341.848,140.646 342.010 C 140.754 342.171,141.239 342.428,141.724 342.579 C 142.209 342.730,142.605 342.998,142.605 343.174 C 142.605 343.349,142.914 343.599,143.291 343.728 C 143.668 343.857,144.858 344.493,145.935 345.142 C 147.013 345.790,148.247 346.501,148.678 346.722 C 149.109 346.942,149.990 347.470,150.637 347.894 C 151.283 348.319,152.165 348.847,152.595 349.068 C 153.026 349.289,154.006 349.864,154.772 350.347 C 155.537 350.829,158.182 352.439,160.648 353.924 C 163.114 355.409,165.485 356.855,165.916 357.137 C 166.695 357.648,166.699 357.573,166.593 343.468 C 166.534 335.667,166.623 329.461,166.789 329.677 C 166.955 329.892,167.532 330.113,168.071 330.167 C 168.954 330.256,168.916 330.184,167.679 329.429 C 166.925 328.969,165.830 328.264,165.246 327.862 C 164.662 327.459,164.001 327.130,163.777 327.130 C 163.553 327.130,163.369 326.993,163.369 326.824 C 163.369 326.656,162.884 326.302,162.292 326.037 C 161.063 325.487,159.779 324.745,159.004 324.136 C 158.711 323.906,157.238 323.054,155.730 322.243 C 154.221 321.432,152.709 320.525,152.369 320.227 C 152.029 319.930,151.620 319.687,151.460 319.687 C 151.300 319.687,150.433 319.187,149.532 318.577 C 148.631 317.967,147.630 317.348,147.307 317.202 C 146.983 317.055,146.190 316.587,145.544 316.160 C 144.897 315.734,143.928 315.167,143.389 314.900 C 142.850 314.632,142.321 314.322,142.214 314.210 C 142.106 314.098,141.665 313.796,141.234 313.538 C 140.803 313.281,138.217 311.739,135.487 310.110 C 132.757 308.482,130.333 307.150,130.100 307.150 C 129.867 307.150,129.677 306.983,129.677 306.779 C 129.677 306.576,129.249 306.179,128.726 305.898 C 128.203 305.617,126.793 304.865,125.592 304.228 C 124.391 303.590,123.408 302.950,123.408 302.804 C 123.408 302.659,123.100 302.435,122.723 302.306 C 122.346 302.177,120.979 301.449,119.687 300.688 C 115.711 298.348,112.974 297.810,108.941 298.576 M169.246 330.806 C 169.246 331.129,169.422 331.502,169.638 331.636 C 169.853 331.769,170.029 331.613,170.029 331.290 C 170.029 330.967,169.853 330.594,169.638 330.460 C 169.422 330.327,169.246 330.483,169.246 330.806 M170.552 331.584 C 170.552 331.936,170.699 332.245,170.878 332.272 C 171.058 332.299,171.366 332.343,171.564 332.370 C 171.761 332.397,172.055 332.551,172.217 332.713 C 172.378 332.875,172.790 333.001,173.131 332.995 C 173.855 332.981,173.043 332.389,171.978 332.154 C 171.662 332.084,171.212 331.784,170.978 331.486 C 170.624 331.036,170.552 331.052,170.552 331.584 M175.122 334.203 C 176.143 334.898,177.865 335.776,177.865 335.602 C 177.865 335.385,175.161 333.789,174.806 333.796 C 174.657 333.800,174.799 333.982,175.122 334.203 " stroke="none" fill="#4b54a4" fill-rule="evenodd"></path><path id="path3" d="M318.250 82.451 C 318.250 82.765,318.385 82.938,318.549 82.836 C 318.714 82.735,318.960 82.830,319.095 83.049 C 319.230 83.268,319.022 83.448,318.632 83.448 C 317.963 83.448,317.924 84.170,317.924 96.535 C 317.924 103.733,318.035 109.442,318.171 109.221 C 318.321 108.979,318.737 109.139,319.224 109.626 C 319.771 110.173,319.880 110.497,319.564 110.636 C 319.308 110.748,319.609 110.803,320.233 110.758 C 320.958 110.706,321.428 110.888,321.536 111.263 C 321.684 111.777,321.654 111.778,321.305 111.275 C 321.085 110.958,320.768 110.835,320.601 111.002 C 320.208 111.395,321.299 112.094,321.939 111.859 C 322.209 111.761,322.429 111.939,322.429 112.255 C 322.429 112.572,322.771 112.831,323.189 112.831 C 323.608 112.831,324.061 113.010,324.196 113.229 C 324.331 113.448,324.595 113.532,324.783 113.416 C 324.970 113.301,325.305 113.518,325.527 113.900 C 325.749 114.281,325.936 114.449,325.943 114.272 C 325.950 114.095,326.234 114.229,326.574 114.569 C 326.915 114.910,327.356 115.088,327.554 114.966 C 327.752 114.843,327.914 114.930,327.914 115.158 C 327.914 115.386,328.189 115.573,328.525 115.573 C 328.861 115.573,329.046 115.717,328.937 115.894 C 328.741 116.211,331.363 117.373,331.929 117.220 C 332.091 117.176,332.223 117.299,332.223 117.494 C 332.223 117.688,332.752 118.031,333.399 118.257 C 334.045 118.482,334.574 118.852,334.574 119.079 C 334.574 119.305,334.828 119.491,335.139 119.491 C 335.718 119.491,335.666 130.388,335.075 132.811 C 334.786 133.997,334.691 135.479,334.386 143.585 C 334.257 147.032,334.041 150.470,333.906 151.224 C 333.772 151.978,333.647 154.006,333.628 155.730 C 333.610 157.453,333.480 159.040,333.340 159.256 C 333.135 159.571,332.854 166.882,332.937 169.728 C 332.948 170.101,332.828 170.485,332.671 170.583 C 332.514 170.680,332.415 172.361,332.453 174.318 C 332.490 176.275,332.385 177.961,332.219 178.064 C 332.052 178.167,331.900 180.556,331.881 183.373 C 331.861 186.190,331.764 188.627,331.664 188.788 C 331.565 188.949,331.449 190.612,331.408 192.484 C 331.367 194.355,331.181 195.886,330.995 195.886 C 330.558 195.886,330.734 196.779,331.244 197.154 C 331.480 197.327,331.422 197.444,331.098 197.447 C 330.693 197.452,330.668 197.583,330.997 197.979 C 331.237 198.268,331.304 198.634,331.147 198.791 C 330.825 199.113,330.836 198.961,330.450 208.619 C 330.270 213.125,330.009 215.775,329.727 215.959 C 329.433 216.150,329.481 216.251,329.873 216.259 C 330.395 216.269,330.395 216.313,329.873 216.650 C 329.373 216.973,329.370 217.031,329.853 217.036 C 330.295 217.041,330.317 217.147,329.951 217.512 C 329.383 218.081,329.324 218.752,329.873 218.413 C 330.088 218.280,330.264 218.343,330.264 218.553 C 330.264 218.764,330.108 218.994,329.916 219.066 C 329.595 219.187,328.883 230.612,329.029 233.301 C 329.066 233.973,328.963 234.278,328.790 234.013 C 328.624 233.758,328.491 235.741,328.495 238.420 C 328.498 241.099,328.411 243.291,328.299 243.291 C 328.188 243.291,328.068 245.188,328.032 247.506 C 327.996 249.824,327.771 252.234,327.533 252.860 C 327.282 253.521,327.248 254.096,327.453 254.228 C 327.648 254.354,327.685 254.797,327.536 255.214 C 327.351 255.733,327.175 255.825,326.979 255.508 C 326.821 255.253,326.434 255.044,326.119 255.044 C 325.517 255.044,322.327 253.100,322.103 252.595 C 322.031 252.434,321.634 252.302,321.221 252.302 C 320.808 252.302,320.470 252.037,320.470 251.714 C 320.470 251.099,319.636 250.916,319.132 251.420 C 318.970 251.582,318.671 251.714,318.467 251.714 C 318.242 251.714,318.097 256.697,318.097 264.420 C 318.097 273.039,317.959 277.292,317.668 277.642 C 317.357 278.017,317.360 278.159,317.680 278.159 C 317.996 278.159,318.119 281.789,318.119 291.087 C 318.119 304.822,318.101 304.703,320.003 303.207 C 320.953 302.460,321.048 302.451,321.269 303.079 C 321.479 303.679,321.583 303.649,322.164 302.820 C 322.525 302.305,322.821 302.022,322.821 302.194 C 322.821 302.365,323.099 302.226,323.440 301.885 C 323.781 301.545,324.203 301.355,324.378 301.463 C 324.554 301.572,324.799 301.397,324.922 301.075 C 325.046 300.753,325.395 300.490,325.699 300.490 C 326.002 300.490,326.469 300.227,326.735 299.906 C 327.001 299.586,327.375 299.420,327.566 299.538 C 327.757 299.656,327.914 299.566,327.914 299.338 C 327.914 299.109,328.239 298.923,328.637 298.923 C 329.035 298.923,329.768 298.570,330.264 298.139 C 330.761 297.708,331.416 297.356,331.719 297.356 C 332.022 297.356,332.169 297.194,332.047 296.996 C 331.925 296.798,332.355 296.519,333.003 296.377 C 333.652 296.234,334.182 295.959,334.182 295.765 C 334.182 295.571,334.623 295.301,335.162 295.166 C 335.700 295.031,336.141 294.780,336.141 294.609 C 336.141 294.438,336.626 294.113,337.218 293.887 C 338.274 293.484,340.455 292.266,340.842 291.863 C 340.950 291.751,341.479 291.443,342.018 291.180 C 343.258 290.574,344.381 289.854,345.065 289.226 C 345.359 288.957,345.851 288.737,346.159 288.737 C 346.467 288.737,346.720 288.604,346.721 288.443 C 346.722 288.281,347.232 287.605,347.855 286.941 C 350.465 284.156,350.771 282.975,350.944 275.024 C 351.030 271.038,351.241 267.600,351.412 267.385 C 351.583 267.169,351.844 263.087,351.993 258.313 C 352.281 249.030,352.297 248.787,352.658 248.188 C 352.788 247.973,353.019 243.830,353.173 238.982 C 353.326 234.135,353.567 230.080,353.709 229.972 C 353.851 229.863,353.988 229.158,354.014 228.404 C 354.417 216.500,354.674 211.291,354.873 210.970 C 355.007 210.754,355.142 209.873,355.175 209.011 C 355.527 199.664,355.849 193.290,355.982 193.065 C 356.071 192.914,356.238 190.799,356.353 188.364 C 356.468 185.929,356.619 183.320,356.688 182.566 C 356.901 180.251,357.454 166.379,357.383 165.150 C 357.346 164.513,357.476 163.893,357.671 163.772 C 357.867 163.651,358.142 159.588,358.283 154.743 C 358.424 149.899,358.694 145.406,358.883 144.760 C 359.072 144.114,359.337 139.971,359.471 135.553 C 359.605 131.136,359.883 126.858,360.089 126.047 C 361.891 118.960,360.692 107.795,357.799 104.715 C 357.149 104.022,356.711 103.361,356.826 103.246 C 356.941 103.131,356.776 103.036,356.459 103.036 C 356.141 103.036,355.275 102.583,354.533 102.028 C 353.790 101.474,352.125 100.498,350.833 99.859 C 346.890 97.912,343.788 96.196,343.650 95.886 C 343.578 95.725,343.291 95.593,343.012 95.593 C 342.734 95.593,342.282 95.324,342.010 94.995 C 341.737 94.667,341.427 94.486,341.320 94.592 C 341.214 94.699,340.646 94.444,340.059 94.025 C 339.471 93.607,338.904 93.352,338.797 93.459 C 338.691 93.565,338.380 93.384,338.108 93.056 C 337.835 92.727,337.391 92.458,337.120 92.458 C 336.850 92.458,336.409 92.194,336.141 91.871 C 335.873 91.548,335.312 91.283,334.895 91.283 C 334.477 91.283,334.245 91.107,334.378 90.891 C 334.511 90.676,334.409 90.500,334.150 90.500 C 333.516 90.500,330.141 88.835,329.781 88.345 C 329.622 88.129,329.490 88.112,329.487 88.307 C 329.484 88.501,329.152 88.281,328.749 87.817 C 327.951 86.897,327.328 86.682,327.724 87.463 C 327.860 87.733,327.738 87.678,327.453 87.343 C 327.168 87.007,326.097 86.330,325.073 85.839 C 324.050 85.347,323.213 84.790,323.213 84.600 C 323.213 84.411,322.966 84.350,322.665 84.466 C 322.363 84.582,322.000 84.488,321.858 84.258 C 321.716 84.028,321.321 83.839,320.982 83.839 C 320.642 83.839,319.956 83.399,319.456 82.860 C 318.405 81.725,318.250 81.673,318.250 82.451 M315.965 277.767 C 315.832 277.982,315.865 278.161,316.040 278.165 C 316.214 278.168,316.092 278.342,315.769 278.550 C 315.400 278.789,315.358 278.932,315.657 278.936 C 315.919 278.940,316.322 278.590,316.552 278.159 C 316.979 277.361,316.439 277.000,315.965 277.767 M317.728 305.009 C 317.728 305.498,317.563 305.531,316.846 305.183 C 315.988 304.767,315.986 304.773,316.744 305.379 C 317.411 305.912,317.581 305.922,317.929 305.446 C 318.152 305.141,318.683 304.802,319.109 304.694 C 319.693 304.546,319.619 304.487,318.805 304.453 C 318.078 304.422,317.728 304.603,317.728 305.009 " stroke="none" fill="#b14098" fill-rule="evenodd"></path><path id="path4" d="M260.411 63.959 C 260.494 78.095,260.589 78.746,262.571 78.746 C 262.766 78.746,262.818 78.921,262.686 79.134 C 262.551 79.353,262.702 79.423,263.036 79.295 C 263.884 78.969,264.687 79.528,263.999 79.965 C 263.593 80.222,263.643 80.303,264.208 80.307 C 264.615 80.311,265.201 80.622,265.510 80.999 C 265.877 81.448,265.984 81.481,265.818 81.097 C 265.652 80.713,265.758 80.746,266.126 81.195 C 266.435 81.572,266.955 81.881,267.282 81.881 C 267.609 81.881,268.094 82.143,268.361 82.464 C 268.627 82.785,268.986 82.960,269.159 82.853 C 269.332 82.746,270.017 83.116,270.682 83.676 C 271.346 84.235,271.890 84.594,271.890 84.474 C 271.890 84.353,272.528 84.688,273.308 85.217 C 274.088 85.746,274.881 86.083,275.071 85.965 C 275.261 85.848,275.416 85.906,275.416 86.094 C 275.416 86.283,275.989 86.728,276.690 87.084 C 277.390 87.440,278.844 88.257,279.922 88.899 C 280.999 89.541,283.289 90.792,285.011 91.679 C 286.732 92.565,288.407 93.507,288.733 93.772 C 289.058 94.037,290.118 94.657,291.087 95.149 C 294.681 96.974,297.855 98.701,300.477 100.259 C 301.960 101.140,303.341 101.861,303.546 101.861 C 303.752 101.861,304.130 102.114,304.387 102.423 C 304.643 102.733,305.372 103.100,306.005 103.239 C 306.638 103.378,307.057 103.654,306.934 103.852 C 306.812 104.050,307.048 104.212,307.459 104.212 C 307.869 104.212,308.612 104.564,309.109 104.995 C 309.606 105.426,310.237 105.779,310.512 105.779 C 310.787 105.779,311.287 106.054,311.623 106.390 C 311.960 106.727,312.585 107.028,313.012 107.061 C 313.440 107.093,313.884 107.365,313.999 107.665 C 314.114 107.965,314.471 108.110,314.793 107.986 C 315.114 107.863,315.377 107.952,315.377 108.183 C 315.377 108.415,315.633 108.507,315.945 108.387 C 316.344 108.234,316.440 108.357,316.269 108.805 C 316.084 109.286,316.189 109.378,316.701 109.181 C 317.072 109.039,317.280 109.078,317.163 109.268 C 316.927 109.649,317.821 110.125,319.212 110.360 L 320.109 110.511 319.264 109.666 C 318.756 109.157,318.320 108.980,318.171 109.222 C 318.035 109.442,317.924 103.777,317.924 96.633 L 317.924 83.643 318.887 83.362 C 319.491 83.185,319.959 83.254,320.139 83.546 C 320.298 83.803,320.564 83.876,320.731 83.709 C 321.188 83.252,320.006 82.666,318.993 82.847 C 318.504 82.935,318.193 82.862,318.303 82.684 C 318.413 82.506,318.240 82.143,317.919 81.877 C 317.598 81.611,317.331 81.547,317.324 81.735 C 317.317 81.923,317.132 81.768,316.913 81.391 C 316.693 81.014,316.170 80.705,315.749 80.705 C 315.329 80.705,314.633 80.353,314.202 79.922 C 313.771 79.491,313.418 79.233,313.418 79.348 C 313.418 79.464,312.760 79.111,311.956 78.565 C 311.152 78.018,310.270 77.571,309.997 77.571 C 309.724 77.571,309.500 77.414,309.500 77.222 C 309.500 77.030,309.017 76.751,308.427 76.603 C 307.837 76.455,307.264 76.214,307.154 76.067 C 306.861 75.677,302.562 73.172,300.294 72.069 C 299.216 71.546,298.245 70.997,298.135 70.849 C 298.025 70.702,297.452 70.460,296.862 70.312 C 296.271 70.164,295.788 69.885,295.788 69.693 C 295.788 69.501,295.559 69.344,295.278 69.344 C 294.997 69.344,294.053 68.819,293.180 68.177 C 292.307 67.535,291.479 67.123,291.340 67.262 C 291.201 67.402,291.087 67.299,291.087 67.035 C 291.087 66.771,290.925 66.655,290.727 66.778 C 290.529 66.900,290.132 66.773,289.845 66.495 C 289.559 66.217,288.266 65.468,286.974 64.831 C 285.681 64.193,284.535 63.577,284.427 63.462 C 283.894 62.894,282.034 61.900,281.503 61.900 C 281.172 61.900,280.898 61.768,280.895 61.606 C 280.891 61.445,279.789 60.784,278.446 60.137 C 277.103 59.491,275.874 58.761,275.715 58.516 C 275.556 58.271,274.983 57.959,274.442 57.823 C 273.900 57.687,273.457 57.403,273.457 57.191 C 273.457 56.980,273.017 56.807,272.478 56.807 C 271.939 56.807,271.499 56.631,271.499 56.415 C 271.499 56.200,271.290 56.024,271.034 56.024 C 270.779 56.024,270.133 55.627,269.600 55.142 C 269.066 54.657,268.759 54.525,268.918 54.848 C 269.076 55.171,268.928 55.094,268.589 54.675 C 268.250 54.257,267.973 54.064,267.973 54.246 C 267.973 54.429,267.590 54.242,267.122 53.832 C 266.654 53.421,266.398 53.304,266.554 53.570 C 266.746 53.898,266.641 53.980,266.230 53.822 C 265.896 53.694,265.622 53.432,265.622 53.239 C 265.622 53.047,265.269 52.889,264.838 52.889 C 264.407 52.889,264.055 52.723,264.055 52.520 C 264.055 52.317,263.704 52.218,263.276 52.301 C 262.538 52.443,261.312 51.611,261.312 50.968 C 261.312 50.804,261.092 50.669,260.823 50.669 C 260.439 50.669,260.350 53.547,260.411 63.959 M260.524 146.241 C 260.521 152.968,260.417 158.848,260.294 159.308 C 260.061 160.175,262.152 161.664,262.929 161.184 C 263.119 161.066,263.230 161.598,263.175 162.365 C 263.120 163.132,262.955 163.760,262.808 163.760 C 262.660 163.761,262.618 164.190,262.713 164.715 C 262.808 165.240,262.700 165.785,262.472 165.926 C 262.184 166.103,262.191 166.342,262.496 166.709 C 262.810 167.088,262.816 167.458,262.515 168.020 C 262.246 168.522,262.224 169.140,262.453 169.743 C 262.651 170.263,262.663 170.922,262.479 171.219 C 262.297 171.514,262.227 171.883,262.324 172.040 C 262.421 172.197,262.345 172.422,262.155 172.539 C 261.965 172.657,261.894 173.196,261.997 173.737 C 262.101 174.279,262.325 174.635,262.496 174.530 C 262.667 174.424,262.715 174.689,262.603 175.117 C 262.490 175.546,262.286 175.828,262.149 175.743 C 262.012 175.658,261.900 176.013,261.900 176.531 C 261.900 177.049,262.032 177.473,262.194 177.473 C 262.356 177.473,262.488 177.644,262.488 177.853 C 262.488 178.061,262.230 178.133,261.916 178.012 C 261.366 177.802,261.341 179.199,261.884 179.743 C 261.997 179.855,261.895 180.182,261.657 180.469 C 261.332 180.860,261.372 181.047,261.818 181.218 C 262.491 181.476,262.450 183.280,261.762 183.706 C 261.238 184.030,261.281 186.971,261.815 187.322 C 262.025 187.459,262.070 187.776,261.915 188.026 C 261.720 188.342,261.486 188.358,261.147 188.076 C 260.795 187.784,260.659 187.834,260.659 188.253 C 260.659 188.806,261.029 188.991,261.900 188.875 C 262.116 188.847,261.996 189.056,261.634 189.341 C 261.244 189.649,261.101 190.059,261.281 190.352 C 261.650 190.948,261.354 192.752,260.887 192.752 C 260.704 192.752,260.655 192.488,260.779 192.165 C 260.903 191.841,260.848 191.577,260.656 191.577 C 260.465 191.577,260.272 192.017,260.227 192.555 C 260.183 193.093,260.276 193.513,260.435 193.488 C 261.389 193.340,261.719 193.626,261.602 194.500 C 261.437 195.734,261.082 196.088,260.785 195.316 C 260.658 194.983,260.724 194.711,260.933 194.711 C 261.142 194.711,261.312 194.564,261.312 194.385 C 261.312 194.205,261.089 194.058,260.815 194.058 C 260.266 194.058,260.151 196.917,260.667 197.752 C 260.837 198.027,260.777 198.237,260.529 198.237 C 260.288 198.237,260.192 198.401,260.316 198.602 C 260.440 198.802,260.363 199.077,260.144 199.213 C 259.528 199.593,259.673 200.307,260.316 200.061 C 260.753 199.893,260.710 200.155,260.134 201.180 C 259.692 201.967,259.539 202.615,259.761 202.752 C 259.998 202.899,260.003 203.240,259.774 203.669 C 259.541 204.103,259.554 204.558,259.810 204.918 C 260.138 205.381,260.172 205.362,259.995 204.812 C 259.877 204.442,259.935 204.043,260.125 203.925 C 260.316 203.807,260.389 204.375,260.290 205.186 C 260.190 205.997,259.938 206.719,259.731 206.791 C 259.523 206.863,259.366 207.303,259.381 207.770 C 259.407 208.562,259.429 208.568,259.704 207.864 C 260.348 206.220,260.443 208.929,260.504 230.820 C 260.560 250.778,260.497 253.453,259.958 253.992 C 259.622 254.328,259.490 254.690,259.663 254.797 C 260.074 255.051,260.621 254.644,261.145 253.696 C 261.631 252.816,262.488 252.420,262.488 253.076 C 262.488 253.322,262.324 253.422,262.123 253.298 C 261.922 253.174,261.657 253.236,261.534 253.436 C 261.150 254.056,262.257 253.695,263.540 252.781 C 264.213 252.302,264.957 251.910,265.193 251.910 C 265.429 251.910,265.622 251.704,265.622 251.453 C 265.622 251.201,265.736 251.110,265.876 251.249 C 266.015 251.389,266.819 251.116,267.662 250.642 L 269.194 249.781 270.934 250.704 C 271.891 251.212,272.674 251.789,272.674 251.987 C 272.674 252.186,272.825 252.255,273.009 252.141 C 273.193 252.027,273.752 252.369,274.252 252.901 C 274.752 253.433,275.488 253.869,275.889 253.869 C 276.289 253.869,276.717 254.132,276.841 254.454 C 276.964 254.776,277.197 254.959,277.357 254.859 C 277.517 254.760,277.983 254.982,278.393 255.351 C 278.803 255.721,279.755 256.324,280.509 256.692 C 282.523 257.673,284.940 259.091,285.505 259.622 C 285.777 259.877,286.394 260.209,286.878 260.360 C 287.361 260.511,287.845 260.757,287.953 260.908 C 288.248 261.320,293.033 264.055,293.459 264.055 C 293.663 264.055,293.830 264.231,293.830 264.447 C 293.830 264.662,293.999 264.838,294.206 264.838 C 294.412 264.838,295.691 265.542,297.046 266.402 C 298.401 267.262,299.731 267.967,300.000 267.969 C 300.269 267.971,300.490 268.135,300.490 268.333 C 300.490 268.532,301.020 268.810,301.668 268.953 C 302.317 269.095,302.750 269.368,302.632 269.560 C 302.513 269.752,302.864 270.021,303.412 270.158 C 303.959 270.296,304.407 270.576,304.407 270.781 C 304.407 270.985,304.557 271.061,304.740 270.948 C 304.923 270.835,305.456 271.099,305.924 271.536 C 306.393 271.973,307.401 272.591,308.164 272.909 C 308.927 273.228,310.267 274.008,311.142 274.641 C 312.017 275.275,312.887 275.698,313.075 275.582 C 313.264 275.465,313.424 275.513,313.431 275.687 C 313.437 275.861,313.907 276.343,314.474 276.756 C 315.042 277.170,315.389 277.319,315.245 277.087 C 315.068 276.800,315.288 276.808,315.929 277.111 C 317.242 277.730,316.599 279.067,315.161 278.706 C 314.380 278.510,314.240 278.585,314.435 279.095 C 314.619 279.573,314.437 279.726,313.684 279.726 C 313.138 279.726,312.451 279.946,312.159 280.215 C 311.535 280.790,310.153 281.593,307.066 283.176 C 305.834 283.807,304.921 284.418,305.037 284.534 C 305.152 284.650,304.706 284.863,304.044 285.009 C 303.382 285.154,302.838 285.391,302.834 285.536 C 302.831 285.680,301.949 286.230,300.875 286.757 C 299.801 287.284,298.923 287.857,298.923 288.030 C 298.923 288.203,298.671 288.345,298.363 288.345 C 298.055 288.345,297.570 288.567,297.286 288.840 C 296.409 289.677,294.613 290.731,294.607 290.411 C 294.604 290.244,294.472 290.288,294.313 290.507 C 294.155 290.727,293.510 291.168,292.880 291.487 C 290.680 292.601,290.304 292.842,290.304 293.139 C 290.304 293.303,290.124 293.438,289.903 293.438 C 289.683 293.438,288.846 293.851,288.043 294.356 C 285.199 296.144,284.432 296.585,284.137 296.602 C 283.973 296.612,283.443 296.992,282.958 297.448 C 282.473 297.903,282.076 298.145,282.076 297.985 C 282.076 297.825,281.507 298.103,280.811 298.602 C 279.387 299.625,278.329 300.276,277.179 300.840 C 276.748 301.052,275.602 301.764,274.633 302.423 C 273.663 303.081,272.692 303.621,272.474 303.622 C 272.256 303.623,271.636 304.034,271.095 304.535 C 270.554 305.037,269.895 305.375,269.630 305.286 C 269.365 305.198,269.041 305.405,268.910 305.746 C 268.779 306.087,268.339 306.366,267.931 306.366 C 267.523 306.366,267.189 306.543,267.189 306.758 C 267.189 306.974,266.919 307.150,266.589 307.150 C 266.259 307.150,265.888 307.414,265.764 307.738 C 265.640 308.061,265.199 308.325,264.784 308.325 C 264.370 308.325,263.929 308.588,263.806 308.909 C 263.683 309.230,262.898 309.698,262.062 309.949 C 260.781 310.333,260.639 310.474,261.159 310.854 C 261.712 311.259,261.702 311.362,261.054 311.872 C 260.379 312.403,260.369 312.389,260.902 311.655 C 261.215 311.224,261.254 311.062,260.989 311.294 C 260.399 311.810,260.105 338.558,260.693 338.194 C 260.896 338.069,260.939 338.299,260.790 338.721 C 260.536 339.446,260.546 339.447,261.090 338.746 C 261.399 338.348,261.824 338.128,262.035 338.258 C 262.245 338.388,263.037 337.893,263.794 337.158 C 264.551 336.423,265.581 335.694,266.082 335.538 C 266.583 335.382,267.461 334.925,268.033 334.523 C 268.605 334.120,269.384 333.790,269.763 333.790 C 270.143 333.790,270.341 333.678,270.203 333.540 C 269.869 333.205,272.379 331.862,272.832 332.133 C 273.027 332.249,273.076 332.165,272.941 331.947 C 272.806 331.728,273.440 331.221,274.350 330.820 C 275.259 330.418,276.092 329.989,276.200 329.865 C 276.438 329.590,281.224 326.815,284.789 324.884 C 285.743 324.368,286.956 323.604,287.486 323.187 C 288.017 322.770,288.676 322.429,288.953 322.429 C 289.229 322.429,289.514 322.297,289.585 322.135 C 289.657 321.974,290.686 321.326,291.871 320.697 C 293.056 320.067,294.114 319.426,294.221 319.271 C 294.329 319.116,295.211 318.583,296.180 318.088 C 297.150 317.592,298.472 316.800,299.119 316.327 C 299.765 315.855,300.690 315.348,301.175 315.200 C 301.660 315.053,302.057 314.768,302.057 314.567 C 302.057 314.366,302.218 314.202,302.414 314.202 C 302.849 314.202,308.439 311.033,308.725 310.624 C 308.837 310.464,309.366 310.146,309.900 309.918 C 310.435 309.689,311.218 309.282,311.640 309.012 C 314.379 307.264,315.669 306.537,316.357 306.354 C 316.787 306.239,317.314 305.754,317.527 305.276 C 317.761 304.749,318.262 304.407,318.800 304.407 C 319.288 304.407,319.687 304.237,319.687 304.028 C 319.687 303.819,319.950 303.749,320.271 303.873 C 320.608 304.002,320.960 303.824,321.103 303.452 C 321.488 302.447,321.075 302.364,319.978 303.227 C 318.105 304.701,318.119 304.797,318.119 291.087 C 318.119 281.789,317.996 278.159,317.680 278.159 C 317.360 278.159,317.357 278.017,317.668 277.642 C 317.959 277.292,318.097 273.039,318.097 264.420 C 318.097 251.345,318.144 250.953,319.589 252.032 C 320.496 252.709,320.088 251.813,319.053 250.853 C 318.489 250.330,317.774 250.000,317.465 250.118 C 317.147 250.240,317.009 250.163,317.148 249.938 C 317.282 249.721,316.719 249.262,315.895 248.919 C 315.071 248.576,314.302 248.144,314.185 247.958 C 314.068 247.772,313.558 247.557,313.052 247.480 C 312.546 247.403,311.929 247.062,311.681 246.722 C 311.433 246.383,310.444 245.702,309.484 245.209 C 308.523 244.716,307.649 244.202,307.542 244.066 C 307.434 243.931,306.552 243.393,305.583 242.870 C 304.613 242.347,303.732 241.811,303.624 241.679 C 303.516 241.546,303.031 241.314,302.547 241.163 C 302.062 241.011,301.665 240.723,301.665 240.522 C 301.665 240.321,301.413 240.157,301.105 240.157 C 300.798 240.157,300.313 239.936,300.028 239.667 C 299.743 239.398,298.717 238.750,297.747 238.227 C 296.778 237.704,295.896 237.151,295.788 236.998 C 295.681 236.844,294.976 236.438,294.221 236.095 C 292.734 235.418,291.398 234.622,291.087 234.227 C 290.979 234.090,289.657 233.316,288.149 232.507 C 286.641 231.697,285.318 230.928,285.211 230.797 C 285.103 230.666,284.339 230.246,283.514 229.864 L 282.013 229.169 282.114 225.946 C 282.169 224.173,282.312 222.547,282.431 222.331 C 282.549 222.116,282.689 221.058,282.740 219.980 C 282.792 218.903,282.924 217.052,283.034 215.867 C 283.144 214.682,283.332 212.390,283.453 210.774 C 283.574 209.158,283.732 207.307,283.804 206.660 C 283.877 206.014,284.049 203.810,284.187 201.763 C 284.325 199.716,284.552 196.983,284.691 195.690 C 284.830 194.398,284.987 192.635,285.040 191.773 C 285.093 190.911,285.223 189.677,285.329 189.030 C 285.435 188.384,285.641 185.213,285.786 181.985 C 285.931 178.756,286.184 175.935,286.348 175.716 C 286.511 175.497,286.688 173.820,286.741 171.988 C 286.794 170.157,287.001 167.071,287.202 165.132 C 288.248 155.007,287.973 150.409,286.190 148.190 C 284.850 146.522,283.043 144.870,281.960 144.322 C 281.270 143.972,280.441 143.477,280.118 143.221 C 279.794 142.966,278.031 142.070,276.200 141.231 C 274.368 140.392,272.637 139.477,272.352 139.197 C 272.067 138.917,271.513 138.688,271.121 138.688 C 270.728 138.688,270.313 138.441,270.197 138.141 C 270.082 137.840,269.092 137.296,267.997 136.933 C 266.776 136.527,266.109 136.107,266.271 135.846 C 266.444 135.565,266.284 135.516,265.800 135.702 C 265.280 135.901,264.865 135.721,264.373 135.083 C 263.992 134.587,263.677 134.413,263.672 134.695 C 263.667 134.977,263.484 135.097,263.265 134.962 C 263.046 134.826,262.951 134.580,263.053 134.414 C 263.156 134.248,262.630 134.089,261.884 134.061 L 260.529 134.010 260.524 146.241 M332.177 176.996 C 332.048 177.774,332.105 178.140,332.323 177.922 C 332.520 177.725,332.616 177.146,332.536 176.637 C 332.412 175.853,332.357 175.908,332.177 176.996 M261.312 181.978 C 261.703 182.449,261.700 182.566,261.295 182.566 C 261.017 182.566,260.896 182.672,261.025 182.801 C 261.155 182.931,261.441 182.925,261.661 182.789 C 262.138 182.494,261.792 181.391,261.223 181.391 C 260.993 181.391,261.031 181.640,261.312 181.978 M258.445 214.539 C 258.600 214.942,258.463 215.018,257.941 214.817 C 257.304 214.573,257.288 214.611,257.799 215.161 C 258.157 215.546,258.469 215.630,258.624 215.381 C 258.762 215.162,259.055 215.094,259.275 215.231 C 259.498 215.368,259.634 215.187,259.580 214.824 C 259.528 214.464,259.203 214.128,258.858 214.077 C 258.461 214.019,258.310 214.188,258.445 214.539 M262.398 337.635 C 262.493 337.921,262.314 338.009,261.933 337.862 C 261.592 337.731,261.312 337.452,261.312 337.242 C 261.312 336.727,262.203 337.049,262.398 337.635 " stroke="none" fill="#9f449c" fill-rule="evenodd"></path></g></svg>