<svg id="svg" xmlns="http://www.w3.org/2000/svg" xmlns:xlink="http://www.w3.org/1999/xlink" width="400" height="455.1282051282051" viewBox="0, 0, 400,455.1282051282051"><g id="svgg"><path id="path0" d="M173.300 0.700 L 0.000 0.801 0.000 227.800 L 0.000 454.800 200.000 454.800 L 400.000 454.800 400.000 227.600 L 400.000 0.400 373.300 0.500 C 358.615 0.554,268.615 0.644,173.300 0.700 M181.048 108.710 C 181.843 109.762,181.854 354.092,181.058 354.752 C 180.659 355.083,170.968 355.177,144.956 355.102 L 109.400 355.000 109.269 353.852 C 108.995 351.459,109.445 350.800,111.351 350.800 C 113.486 350.800,117.670 348.773,119.400 346.901 C 124.585 341.290,127.242 333.839,128.778 320.600 C 129.279 316.285,129.272 148.036,128.771 143.800 C 126.441 124.105,121.095 114.114,111.916 112.298 L 109.400 111.800 109.400 110.218 C 109.400 108.871,109.549 108.595,110.400 108.359 C 112.944 107.653,180.503 107.989,181.048 108.710 M224.232 108.802 C 229.969 109.006,234.919 109.269,235.232 109.386 C 235.544 109.503,237.330 109.776,239.200 109.991 C 246.647 110.848,255.485 113.000,260.000 115.054 C 268.893 119.100,279.600 127.612,279.600 130.636 C 279.600 130.785,279.918 131.197,280.307 131.553 C 281.046 132.230,282.492 135.070,283.996 138.800 C 284.483 140.010,285.030 141.360,285.211 141.800 C 285.555 142.640,286.435 145.757,287.187 148.800 C 288.561 154.360,289.137 173.218,288.117 179.200 C 285.665 193.570,275.313 209.403,264.449 215.400 C 263.652 215.840,262.910 216.299,262.800 216.420 C 262.383 216.879,258.370 219.200,257.994 219.200 C 257.777 219.200,257.600 219.380,257.600 219.600 C 257.600 219.820,257.410 220.000,257.178 220.000 C 256.945 220.000,255.667 220.540,254.337 221.200 C 253.006 221.860,251.666 222.400,251.359 222.400 C 251.052 222.400,250.800 222.543,250.800 222.717 C 250.800 222.892,250.125 223.231,249.300 223.471 C 248.023 223.842,244.818 224.932,241.800 226.022 C 240.098 226.637,235.965 227.600,235.030 227.600 C 234.489 227.600,233.936 227.780,233.800 228.000 C 233.645 228.251,234.527 228.400,236.169 228.400 C 238.826 228.400,240.296 228.577,249.200 229.968 C 255.635 230.974,261.641 232.437,265.800 234.014 C 274.103 237.162,278.569 239.563,284.453 244.044 C 288.041 246.777,294.400 253.377,294.400 254.370 C 294.400 254.570,294.535 254.793,294.700 254.867 C 296.257 255.559,301.929 267.419,302.990 272.200 C 304.944 281.009,305.151 282.936,305.151 292.400 C 305.151 304.192,304.214 310.436,301.222 318.600 C 298.740 325.373,288.514 339.200,285.987 339.200 C 285.806 339.200,285.397 339.460,285.079 339.778 C 283.660 341.197,277.322 344.662,273.000 346.382 C 272.560 346.557,271.660 346.922,271.000 347.193 C 268.963 348.030,265.131 349.200,264.428 349.200 C 264.061 349.200,263.589 349.352,263.380 349.538 C 263.171 349.724,261.380 350.182,259.400 350.554 C 257.420 350.927,255.260 351.391,254.600 351.584 C 253.940 351.778,252.410 352.047,251.200 352.182 C 249.990 352.318,247.920 352.597,246.600 352.803 C 236.639 354.358,202.428 355.869,202.372 354.757 C 202.317 353.669,202.307 350.981,202.353 349.700 L 202.400 348.400 204.900 348.404 C 209.246 348.411,222.323 346.770,224.200 345.982 C 224.640 345.798,225.624 345.523,226.387 345.372 C 227.150 345.222,228.050 344.958,228.387 344.786 C 228.724 344.614,230.341 343.811,231.981 343.001 C 236.598 340.719,242.800 335.600,242.800 334.071 C 242.800 333.849,242.935 333.607,243.100 333.533 C 243.993 333.137,248.400 324.848,248.400 323.566 C 248.400 323.233,248.556 322.789,248.746 322.580 C 248.937 322.371,249.406 320.940,249.789 319.400 C 250.172 317.860,250.590 316.330,250.718 316.000 C 251.038 315.173,251.900 309.804,252.483 305.000 C 253.708 294.916,252.677 273.232,250.724 268.000 C 250.601 267.670,249.910 265.601,249.189 263.402 C 244.830 250.117,235.576 240.822,222.800 236.897 C 216.457 234.948,214.443 234.561,207.615 233.979 C 202.204 233.519,202.492 233.720,202.274 230.249 C 202.044 226.582,202.229 226.000,203.623 226.000 C 204.244 226.000,204.864 225.820,205.000 225.600 C 205.136 225.380,205.676 225.200,206.201 225.200 C 206.725 225.200,208.744 224.668,210.686 224.017 C 224.183 219.495,233.218 208.367,237.008 191.600 C 237.381 189.950,237.845 187.970,238.038 187.200 C 240.626 176.908,239.395 149.255,235.981 141.000 C 235.799 140.560,235.524 139.750,235.370 139.200 C 235.216 138.650,234.665 137.267,234.145 136.126 C 233.625 134.985,233.200 133.875,233.200 133.659 C 233.200 133.443,233.065 133.207,232.900 133.133 C 232.735 133.060,232.254 132.370,231.832 131.600 C 228.102 124.803,217.040 116.842,211.274 116.806 C 210.764 116.803,210.014 116.622,209.608 116.404 C 209.201 116.186,207.483 115.926,205.790 115.827 C 202.042 115.606,202.335 115.925,202.324 112.064 C 202.311 107.649,201.987 107.858,208.354 108.167 C 211.349 108.313,218.494 108.599,224.232 108.802 " stroke="none" fill="#f47c4b" fill-rule="evenodd"></path><path id="path1" d="M110.000 110.136 C 110.000 110.949,110.304 111.141,112.300 111.594 C 119.725 113.280,125.375 121.166,127.779 133.200 C 128.152 135.070,128.617 137.322,128.811 138.204 C 130.100 144.071,130.200 150.784,130.200 231.800 C 130.200 321.487,130.244 319.717,127.736 331.000 C 125.138 342.691,119.717 349.903,112.400 351.407 C 110.333 351.831,110.192 351.935,110.074 353.131 L 109.949 354.404 145.274 354.302 L 180.600 354.200 180.701 231.700 L 180.801 109.200 145.401 109.200 L 110.000 109.200 110.000 110.136 M202.800 111.896 C 202.800 115.033,202.952 115.183,206.121 115.195 C 219.705 115.243,233.391 127.298,237.235 142.600 C 241.138 158.138,241.254 176.649,237.547 192.400 C 234.389 205.816,226.713 217.087,217.459 221.899 C 214.836 223.262,208.918 225.600,208.090 225.600 C 207.742 225.600,206.904 225.774,206.228 225.986 C 205.553 226.198,204.505 226.472,203.900 226.594 C 202.820 226.811,202.800 226.868,202.800 229.761 C 202.800 233.111,202.673 232.998,206.600 233.154 C 211.643 233.355,217.889 234.517,223.095 236.222 C 235.793 240.381,244.231 248.521,249.405 261.600 C 255.291 276.481,255.342 306.859,249.508 322.800 C 242.838 341.024,230.897 348.223,206.200 348.911 L 203.000 349.000 202.882 351.467 C 202.781 353.575,202.871 353.969,203.501 354.169 C 204.533 354.496,231.582 353.701,236.969 353.185 C 248.623 352.068,262.781 349.599,266.600 348.016 C 267.040 347.834,268.300 347.382,269.400 347.011 C 284.193 342.030,296.506 330.732,300.586 318.393 C 302.968 311.191,303.841 306.622,304.425 298.300 C 305.156 287.882,303.912 276.445,301.218 268.800 C 292.514 244.110,269.944 230.859,233.300 228.926 C 228.053 228.649,227.707 228.372,231.700 227.647 C 241.604 225.848,250.795 222.606,259.200 217.945 C 280.675 206.037,290.595 185.250,287.805 158.000 C 287.227 152.361,287.029 151.233,285.735 146.200 C 280.526 125.938,266.509 114.722,241.800 111.045 C 232.672 109.686,230.380 109.527,216.900 109.311 L 202.800 109.086 202.800 111.896 " stroke="none" fill="#fbfbfb" fill-rule="evenodd"></path><path id="path2" d="M132.700 108.700 C 141.115 108.760,154.885 108.760,163.300 108.700 C 171.715 108.640,164.830 108.590,148.000 108.590 C 131.170 108.590,124.285 108.640,132.700 108.700 M202.667 108.667 C 202.520 108.813,202.403 109.128,202.406 109.367 C 202.410 109.651,202.514 109.641,202.707 109.336 C 202.870 109.081,203.542 108.793,204.201 108.696 L 205.400 108.520 204.167 108.460 C 203.488 108.427,202.813 108.520,202.667 108.667 M224.100 109.087 C 224.705 109.178,225.695 109.178,226.300 109.087 C 226.905 108.995,226.410 108.920,225.200 108.920 C 223.990 108.920,223.495 108.995,224.100 109.087 M180.997 231.600 C 180.997 299.030,181.044 326.615,181.100 292.900 C 181.156 259.185,181.156 204.015,181.100 170.300 C 181.044 136.585,180.997 164.170,180.997 231.600 M229.700 109.476 C 230.085 109.576,230.715 109.576,231.100 109.476 C 231.485 109.375,231.170 109.293,230.400 109.293 C 229.630 109.293,229.315 109.375,229.700 109.476 M274.600 125.200 C 275.906 126.520,277.065 127.600,277.175 127.600 C 277.285 127.600,276.306 126.520,275.000 125.200 C 273.694 123.880,272.535 122.800,272.425 122.800 C 272.315 122.800,273.294 123.880,274.600 125.200 M129.796 232.200 C 129.796 275.540,129.843 293.329,129.900 271.732 C 129.957 250.134,129.957 214.674,129.900 192.932 C 129.843 171.189,129.796 188.860,129.796 232.200 M239.761 168.000 C 239.761 171.410,239.822 172.805,239.897 171.100 C 239.972 169.395,239.972 166.605,239.897 164.900 C 239.822 163.195,239.761 164.590,239.761 168.000 M288.548 168.000 C 288.548 170.310,288.614 171.255,288.695 170.100 C 288.776 168.945,288.776 167.055,288.695 165.900 C 288.614 164.745,288.548 165.690,288.548 168.000 M274.778 205.900 L 273.400 207.400 274.900 206.022 C 276.296 204.738,276.584 204.400,276.278 204.400 C 276.212 204.400,275.537 205.075,274.778 205.900 M270.378 210.300 L 269.000 211.800 270.500 210.422 C 271.896 209.138,272.184 208.800,271.878 208.800 C 271.812 208.800,271.137 209.475,270.378 210.300 M230.800 228.408 C 230.800 228.623,231.730 228.800,232.867 228.800 C 235.346 228.800,235.285 228.602,232.700 228.264 C 231.556 228.114,230.800 228.171,230.800 228.408 M253.362 291.000 C 253.362 294.520,253.424 295.906,253.498 294.081 C 253.572 292.256,253.572 289.376,253.497 287.681 C 253.422 285.986,253.361 287.480,253.362 291.000 M304.909 287.600 C 304.909 288.590,304.987 288.995,305.082 288.500 C 305.178 288.005,305.178 287.195,305.082 286.700 C 304.987 286.205,304.909 286.610,304.909 287.600 M304.901 297.400 C 304.905 298.280,304.987 298.593,305.083 298.095 C 305.179 297.598,305.175 296.878,305.075 296.495 C 304.975 296.113,304.896 296.520,304.901 297.400 M129.301 317.800 C 129.305 318.680,129.387 318.993,129.483 318.495 C 129.579 317.998,129.575 317.278,129.475 316.895 C 129.375 316.513,129.296 316.920,129.301 317.800 M288.575 336.500 L 287.400 337.800 288.700 336.625 C 289.415 335.979,290.000 335.394,290.000 335.325 C 290.000 335.016,289.670 335.288,288.575 336.500 M119.578 347.100 L 118.200 348.600 119.700 347.222 C 121.096 345.938,121.384 345.600,121.078 345.600 C 121.012 345.600,120.337 346.275,119.578 347.100 M231.505 353.883 C 232.002 353.979,232.722 353.975,233.105 353.875 C 233.487 353.775,233.080 353.696,232.200 353.701 C 231.320 353.705,231.007 353.787,231.505 353.883 M225.507 354.290 C 226.226 354.379,227.306 354.377,227.907 354.286 C 228.508 354.195,227.920 354.122,226.600 354.124 C 225.280 354.126,224.788 354.201,225.507 354.290 M211.300 354.691 C 212.125 354.778,213.475 354.778,214.300 354.691 C 215.125 354.605,214.450 354.534,212.800 354.534 C 211.150 354.534,210.475 354.605,211.300 354.691 " stroke="none" fill="#f5ae93" fill-rule="evenodd"></path><path id="path3" d="M0.000 0.400 C 0.000 0.851,318.397 0.870,369.800 0.422 C 386.520 0.277,310.155 0.122,200.100 0.079 C 66.914 0.026,0.000 0.134,0.000 0.400 M110.400 108.356 C 108.110 108.986,108.854 111.811,111.400 112.152 L 113.000 112.366 111.300 111.926 C 108.983 111.327,108.702 109.042,110.900 108.667 C 114.825 107.998,180.136 108.399,180.922 109.097 C 181.692 109.781,181.699 109.776,181.166 108.909 L 180.619 108.019 146.010 108.050 C 126.974 108.067,110.950 108.205,110.400 108.356 M202.672 108.284 C 202.563 108.460,206.102 108.665,210.537 108.740 C 214.972 108.815,218.510 108.793,218.400 108.692 C 218.031 108.353,202.872 107.960,202.672 108.284 M228.105 109.087 C 228.714 109.179,229.614 109.177,230.105 109.082 C 230.597 108.987,230.100 108.911,229.000 108.914 C 227.900 108.917,227.497 108.995,228.105 109.087 M232.505 109.487 C 233.114 109.579,234.014 109.577,234.505 109.482 C 234.997 109.387,234.500 109.311,233.400 109.314 C 232.300 109.317,231.897 109.395,232.505 109.487 M240.033 110.147 C 240.125 110.228,240.920 110.404,241.800 110.538 C 242.915 110.707,243.158 110.671,242.600 110.419 C 241.832 110.071,239.690 109.844,240.033 110.147 M181.299 231.867 C 181.245 298.784,181.091 353.819,180.957 354.167 C 180.738 354.738,177.210 354.800,145.134 354.800 L 109.554 354.800 109.677 353.100 C 109.793 351.503,109.885 351.385,111.200 351.153 L 112.600 350.905 111.108 350.853 C 109.463 350.795,109.005 351.542,109.269 353.852 L 109.400 355.000 145.049 355.102 C 174.708 355.187,180.774 355.113,181.150 354.660 C 181.483 354.259,181.575 322.267,181.500 232.158 L 181.399 110.200 181.299 231.867 M114.800 112.964 C 114.800 113.083,115.351 113.464,116.024 113.812 C 116.697 114.160,118.002 115.103,118.924 115.906 L 120.600 117.366 119.284 115.948 C 118.074 114.643,114.800 112.465,114.800 112.964 M209.600 116.400 C 209.930 116.613,210.560 116.778,211.000 116.766 L 211.800 116.744 211.000 116.400 C 209.804 115.886,208.805 115.886,209.600 116.400 M223.716 122.264 C 223.874 122.519,224.947 123.503,226.101 124.450 C 227.256 125.398,227.840 125.755,227.400 125.243 C 226.452 124.140,223.302 121.593,223.716 122.264 M275.581 125.800 C 278.474 129.017,278.667 129.199,277.698 127.800 C 277.241 127.140,276.092 125.880,275.145 125.000 C 273.685 123.643,273.751 123.765,275.581 125.800 M125.848 128.600 C 125.991 129.260,126.266 130.070,126.459 130.400 C 126.684 130.784,126.718 130.568,126.552 129.800 C 126.409 129.140,126.134 128.330,125.941 128.000 C 125.716 127.616,125.682 127.832,125.848 128.600 M126.880 132.200 C 126.880 132.640,127.024 133.450,127.200 134.000 C 127.454 134.792,127.520 134.833,127.520 134.200 C 127.520 133.760,127.376 132.950,127.200 132.400 C 126.946 131.608,126.880 131.567,126.880 132.200 M128.068 138.800 C 128.062 139.350,128.211 140.160,128.400 140.600 L 128.744 141.400 128.732 140.600 C 128.726 140.160,128.576 139.350,128.400 138.800 L 128.080 137.800 128.068 138.800 M236.456 142.400 C 236.456 142.730,236.611 143.360,236.800 143.800 C 237.017 144.304,237.144 144.378,237.144 144.000 C 237.144 143.670,236.989 143.040,236.800 142.600 C 236.583 142.096,236.456 142.022,236.456 142.400 M128.893 144.800 C 128.893 145.570,128.975 145.885,129.076 145.500 C 129.176 145.115,129.176 144.485,129.076 144.100 C 128.975 143.715,128.893 144.030,128.893 144.800 M237.606 147.433 C 237.609 147.855,237.795 148.470,238.018 148.800 C 238.315 149.238,238.352 149.076,238.156 148.200 C 237.827 146.729,237.598 146.410,237.606 147.433 M129.396 231.800 C 129.396 278.440,129.443 297.461,129.500 274.068 C 129.557 250.675,129.557 212.515,129.500 189.268 C 129.443 166.021,129.396 185.160,129.396 231.800 M238.847 155.233 C 238.873 156.205,239.037 157.540,239.211 158.200 C 239.402 158.928,239.441 158.298,239.309 156.600 C 239.061 153.421,238.776 152.576,238.847 155.233 M288.291 159.423 C 288.502 164.285,288.703 164.922,288.725 160.800 C 288.736 158.930,288.607 157.050,288.440 156.623 C 288.272 156.195,288.205 157.455,288.291 159.423 M288.469 173.800 C 288.425 174.900,288.296 176.250,288.183 176.800 L 287.977 177.800 288.407 176.816 C 288.643 176.276,288.771 174.926,288.692 173.816 L 288.548 171.800 288.469 173.800 M239.072 177.004 C 238.927 177.882,238.830 179.410,238.856 180.400 C 238.893 181.803,238.980 181.539,239.251 179.200 C 239.628 175.953,239.501 174.405,239.072 177.004 M287.422 181.022 C 287.272 181.825,287.228 182.562,287.326 182.660 C 287.424 182.757,287.627 182.181,287.778 181.378 C 287.928 180.575,287.972 179.838,287.874 179.740 C 287.776 179.643,287.573 180.219,287.422 181.022 M237.849 187.415 C 237.712 187.773,237.615 188.366,237.634 188.733 C 237.653 189.100,237.827 188.869,238.021 188.220 C 238.398 186.958,238.265 186.333,237.849 187.415 M236.629 193.029 C 236.481 193.615,236.438 194.172,236.532 194.266 C 236.627 194.360,236.824 193.958,236.971 193.371 C 237.119 192.785,237.162 192.228,237.068 192.134 C 236.973 192.040,236.776 192.442,236.629 193.029 M278.399 201.700 C 277.810 202.504,277.713 202.784,278.145 202.433 C 278.801 201.900,279.793 200.400,279.489 200.400 C 279.413 200.400,278.922 200.985,278.399 201.700 M229.785 209.300 C 229.168 210.235,228.920 210.789,229.232 210.531 C 229.833 210.034,231.364 207.600,231.076 207.600 C 230.983 207.600,230.402 208.365,229.785 209.300 M266.000 214.083 C 265.230 214.746,264.960 215.091,265.400 214.851 C 266.609 214.190,267.763 213.229,267.571 213.043 C 267.477 212.952,266.770 213.420,266.000 214.083 M223.775 216.500 L 222.600 217.800 223.900 216.625 C 224.615 215.979,225.200 215.394,225.200 215.325 C 225.200 215.016,224.870 215.288,223.775 216.500 M220.600 218.853 C 218.234 220.624,217.922 221.106,220.080 219.654 C 221.113 218.959,222.069 218.212,222.203 217.995 C 222.555 217.426,222.383 217.518,220.600 218.853 M209.600 224.400 C 208.776 224.664,208.741 224.726,209.400 224.754 C 209.840 224.773,210.470 224.613,210.800 224.400 C 211.501 223.947,211.014 223.947,209.600 224.400 M244.200 225.014 C 243.200 225.496,243.166 225.551,244.000 225.348 C 245.133 225.071,246.407 224.421,245.800 224.430 C 245.580 224.433,244.860 224.696,244.200 225.014 M205.045 225.528 C 204.933 225.708,205.373 225.777,206.021 225.682 C 206.670 225.587,207.200 225.440,207.200 225.355 C 207.200 225.050,205.243 225.207,205.045 225.528 M240.600 226.000 C 239.829 226.331,239.831 226.345,240.676 226.372 C 241.158 226.387,241.664 226.220,241.800 226.000 C 242.092 225.527,241.701 225.527,240.600 226.000 M232.600 228.000 C 231.829 228.331,231.831 228.345,232.676 228.372 C 233.158 228.387,233.664 228.220,233.800 228.000 C 234.092 227.527,233.701 227.527,232.600 228.000 M234.833 228.545 C 234.925 228.624,236.620 228.780,238.600 228.891 C 240.580 229.002,241.660 228.958,241.000 228.794 C 239.784 228.491,234.527 228.278,234.833 228.545 M247.300 229.876 C 247.685 229.976,248.315 229.976,248.700 229.876 C 249.085 229.775,248.770 229.693,248.000 229.693 C 247.230 229.693,246.915 229.775,247.300 229.876 M253.000 230.800 C 254.196 231.314,255.195 231.314,254.400 230.800 C 254.070 230.587,253.440 230.422,253.000 230.434 L 252.200 230.456 253.000 230.800 M204.400 233.620 C 205.390 233.797,206.740 233.932,207.400 233.920 C 208.285 233.905,208.128 233.816,206.800 233.580 C 205.810 233.403,204.460 233.268,203.800 233.280 C 202.915 233.295,203.072 233.384,204.400 233.620 M212.200 234.390 C 212.964 234.728,215.514 234.957,215.167 234.656 C 215.075 234.576,214.190 234.404,213.200 234.273 C 211.998 234.114,211.666 234.153,212.200 234.390 M276.433 238.931 C 277.113 239.463,279.600 240.825,279.600 240.665 C 279.600 240.406,277.005 238.800,276.586 238.800 C 276.410 238.800,276.342 238.859,276.433 238.931 M280.000 240.911 C 280.000 240.987,280.585 241.478,281.300 242.001 C 282.104 242.590,282.384 242.687,282.033 242.255 C 281.500 241.599,280.000 240.607,280.000 240.911 M233.600 241.985 C 234.150 242.446,234.960 243.010,235.400 243.238 C 235.946 243.522,235.882 243.387,235.200 242.815 C 234.650 242.354,233.840 241.790,233.400 241.562 C 232.854 241.278,232.918 241.413,233.600 241.985 M239.200 246.600 C 240.395 247.810,241.463 248.800,241.573 248.800 C 241.683 248.800,240.795 247.810,239.600 246.600 C 238.405 245.390,237.337 244.400,237.227 244.400 C 237.117 244.400,238.005 245.390,239.200 246.600 M289.000 248.400 C 290.750 250.160,292.271 251.600,292.381 251.600 C 292.491 251.600,291.150 250.160,289.400 248.400 C 287.650 246.640,286.129 245.200,286.019 245.200 C 285.909 245.200,287.250 246.640,289.000 248.400 M249.429 264.000 C 249.576 264.550,249.864 265.270,250.067 265.600 C 250.325 266.017,250.357 265.895,250.171 265.200 C 250.024 264.650,249.736 263.930,249.533 263.600 C 249.275 263.183,249.243 263.305,249.429 264.000 M303.044 273.800 C 303.373 275.271,303.602 275.590,303.594 274.567 C 303.591 274.145,303.405 273.530,303.182 273.200 C 302.885 272.762,302.848 272.924,303.044 273.800 M252.485 278.000 C 252.477 278.770,252.610 280.300,252.782 281.400 C 253.085 283.348,253.094 283.359,253.117 281.800 C 253.130 280.920,252.997 279.390,252.820 278.400 C 252.525 276.742,252.499 276.711,252.485 278.000 M304.282 280.021 C 304.408 280.999,304.575 281.875,304.655 281.967 C 304.981 282.342,304.760 279.355,304.421 278.821 C 304.184 278.446,304.135 278.870,304.282 280.021 M304.893 284.800 C 304.893 285.570,304.975 285.885,305.076 285.500 C 305.176 285.115,305.176 284.485,305.076 284.100 C 304.975 283.715,304.893 284.030,304.893 284.800 M304.893 300.000 C 304.893 300.770,304.975 301.085,305.076 300.700 C 305.176 300.315,305.176 299.685,305.076 299.300 C 304.975 298.915,304.893 299.230,304.893 300.000 M252.640 302.640 C 252.490 304.103,252.449 305.382,252.548 305.482 C 252.648 305.581,252.857 304.471,253.013 303.013 C 253.169 301.556,253.211 300.277,253.105 300.172 C 252.999 300.066,252.790 301.177,252.640 302.640 M304.462 303.400 C 304.422 304.060,304.289 305.050,304.167 305.600 C 303.976 306.460,304.008 306.501,304.396 305.893 C 304.644 305.504,304.777 304.514,304.691 303.693 C 304.556 302.404,304.525 302.364,304.462 303.400 M251.799 309.859 C 251.660 310.707,251.447 311.940,251.326 312.600 C 251.205 313.260,251.223 313.690,251.365 313.555 C 251.684 313.252,252.446 308.713,252.217 308.484 C 252.126 308.393,251.938 309.012,251.799 309.859 M303.254 310.667 C 303.225 311.144,303.096 311.864,302.970 312.267 C 302.752 312.961,302.764 312.962,303.196 312.288 C 303.447 311.897,303.575 311.177,303.481 310.688 C 303.309 309.801,303.309 309.801,303.254 310.667 M300.065 320.617 C 299.395 322.088,299.523 322.402,300.247 321.065 C 300.586 320.440,300.788 319.854,300.696 319.763 C 300.605 319.671,300.321 320.056,300.065 320.617 M128.256 324.084 C 128.121 324.588,128.027 325.360,128.046 325.800 C 128.065 326.240,128.245 325.898,128.446 325.040 C 128.836 323.378,128.670 322.540,128.256 324.084 M127.246 330.067 C 127.221 330.434,127.096 331.064,126.970 331.467 C 126.752 332.162,126.763 332.163,127.197 331.487 C 127.448 331.096,127.573 330.466,127.473 330.087 C 127.311 329.468,127.288 329.466,127.246 330.067 M293.200 331.800 C 292.683 332.350,292.427 332.794,292.630 332.787 C 292.972 332.776,294.621 330.800,294.288 330.800 C 294.206 330.800,293.717 331.250,293.200 331.800 M290.581 334.900 L 289.000 336.600 290.700 335.019 C 292.281 333.548,292.584 333.200,292.281 333.200 C 292.216 333.200,291.451 333.965,290.581 334.900 M239.600 337.800 C 238.628 338.790,237.923 339.600,238.033 339.600 C 238.143 339.600,239.028 338.790,240.000 337.800 C 240.972 336.810,241.677 336.000,241.567 336.000 C 241.457 336.000,240.572 336.810,239.600 337.800 M283.200 340.836 C 282.536 341.379,282.469 341.515,283.000 341.240 C 284.305 340.566,285.028 340.012,284.600 340.015 C 284.380 340.017,283.750 340.386,283.200 340.836 M234.311 341.760 C 232.171 343.032,231.911 343.444,233.873 342.455 C 234.793 341.991,235.659 341.429,235.796 341.206 C 236.114 340.693,236.098 340.699,234.311 341.760 M278.300 343.627 C 277.475 344.063,276.800 344.508,276.800 344.618 C 276.800 344.727,277.520 344.449,278.400 344.000 C 279.280 343.551,280.000 343.097,280.000 342.992 C 280.000 342.730,279.997 342.731,278.300 343.627 M220.200 346.800 C 219.111 347.077,219.093 347.107,220.000 347.125 C 220.550 347.135,221.360 346.989,221.800 346.800 C 222.786 346.376,221.866 346.376,220.200 346.800 M210.600 348.000 C 208.273 348.417,210.740 348.433,213.400 348.018 C 215.299 347.723,215.319 347.707,213.800 347.710 C 212.920 347.712,211.480 347.842,210.600 348.000 M115.800 349.410 C 114.920 349.952,114.380 350.396,114.600 350.396 C 114.820 350.396,115.720 349.952,116.600 349.410 C 117.480 348.868,118.020 348.425,117.800 348.425 C 117.580 348.425,116.680 348.868,115.800 349.410 M262.200 349.600 C 261.429 349.931,261.431 349.945,262.276 349.972 C 262.758 349.987,263.264 349.820,263.400 349.600 C 263.692 349.127,263.301 349.127,262.200 349.600 M252.800 351.600 C 251.416 351.891,251.414 351.895,252.600 351.941 C 253.260 351.967,254.070 351.813,254.400 351.600 C 255.066 351.170,254.845 351.170,252.800 351.600 M244.600 352.800 L 243.000 353.086 244.400 353.103 C 245.170 353.113,246.250 352.976,246.800 352.800 C 248.085 352.388,246.899 352.388,244.600 352.800 M234.707 353.890 C 235.426 353.979,236.506 353.977,237.107 353.886 C 237.708 353.795,237.120 353.722,235.800 353.724 C 234.480 353.726,233.988 353.801,234.707 353.890 M229.907 354.290 C 230.626 354.379,231.706 354.377,232.307 354.286 C 232.908 354.195,232.320 354.122,231.000 354.124 C 229.680 354.126,229.188 354.201,229.907 354.290 M202.403 354.900 C 202.399 355.269,213.348 355.225,218.000 354.837 C 220.327 354.643,218.403 354.561,211.903 354.577 C 206.679 354.590,202.404 354.735,202.403 354.900 " stroke="none" fill="#f49a6e" fill-rule="evenodd"></path><path id="path4" d="M109.600 110.200 C 109.600 111.474,109.699 111.595,110.700 111.546 C 111.643 111.499,111.672 111.466,110.900 111.318 C 110.262 111.195,110.000 110.862,110.000 110.174 L 110.000 109.204 145.500 109.100 L 181.000 108.996 145.300 108.898 L 109.600 108.800 109.600 110.200 M207.676 109.099 C 210.468 109.167,215.148 109.168,218.076 109.099 C 221.004 109.031,218.720 108.975,213.000 108.974 C 207.280 108.974,204.884 109.030,207.676 109.099 M226.100 109.487 C 226.705 109.578,227.695 109.578,228.300 109.487 C 228.905 109.395,228.410 109.320,227.200 109.320 C 225.990 109.320,225.495 109.395,226.100 109.487 M202.528 112.000 C 202.528 113.430,202.601 114.015,202.689 113.300 C 202.778 112.585,202.778 111.415,202.689 110.700 C 202.601 109.985,202.528 110.570,202.528 112.000 M232.900 109.876 C 233.285 109.976,233.915 109.976,234.300 109.876 C 234.685 109.775,234.370 109.693,233.600 109.693 C 232.830 109.693,232.515 109.775,232.900 109.876 M235.900 110.282 C 236.395 110.378,237.205 110.378,237.700 110.282 C 238.195 110.187,237.790 110.109,236.800 110.109 C 235.810 110.109,235.405 110.187,235.900 110.282 M243.000 111.200 C 243.660 111.368,244.650 111.505,245.200 111.505 C 246.092 111.505,246.070 111.472,245.000 111.200 C 244.340 111.032,243.350 110.895,242.800 110.895 C 241.908 110.895,241.930 110.928,243.000 111.200 M115.600 113.030 C 117.902 114.336,120.978 117.320,122.269 119.500 C 123.511 121.597,123.972 121.769,122.805 119.700 C 121.097 116.673,115.870 111.986,114.222 112.005 C 113.990 112.007,114.610 112.469,115.600 113.030 M258.400 115.031 C 258.400 115.301,260.478 116.056,260.676 115.857 C 260.767 115.767,260.292 115.501,259.620 115.267 C 258.949 115.033,258.400 114.927,258.400 115.031 M212.433 116.544 C 212.525 116.623,213.140 116.808,213.800 116.956 C 214.676 117.152,214.838 117.115,214.400 116.818 C 213.860 116.453,212.032 116.198,212.433 116.544 M215.200 117.334 C 215.200 117.437,215.781 117.724,216.491 117.972 C 217.201 118.219,217.606 118.257,217.391 118.056 C 216.935 117.629,215.200 117.058,215.200 117.334 M218.033 118.551 C 218.442 118.921,221.600 120.395,221.600 120.216 C 221.600 119.989,218.581 118.400,218.149 118.400 C 217.994 118.400,217.942 118.468,218.033 118.551 M269.600 121.067 C 270.370 121.683,272.530 123.625,274.400 125.384 L 277.800 128.581 274.821 125.502 C 273.183 123.808,271.023 121.866,270.021 121.185 C 268.449 120.117,268.391 120.101,269.600 121.067 M225.285 123.155 C 226.322 124.080,228.012 125.773,229.041 126.918 C 230.070 128.063,230.541 128.460,230.087 127.800 C 229.212 126.527,225.542 122.920,224.200 122.014 C 223.760 121.716,224.248 122.230,225.285 123.155 M125.429 126.000 C 125.576 126.550,125.864 127.270,126.067 127.600 C 126.325 128.017,126.357 127.895,126.171 127.200 C 126.024 126.650,125.736 125.930,125.533 125.600 C 125.275 125.183,125.243 125.305,125.429 126.000 M126.456 128.800 C 126.456 129.130,126.611 129.760,126.800 130.200 C 127.017 130.704,127.144 130.778,127.144 130.400 C 127.144 130.070,126.989 129.440,126.800 129.000 C 126.583 128.496,126.456 128.422,126.456 128.800 M279.149 131.000 C 279.365 131.440,279.834 132.160,280.193 132.600 L 280.844 133.400 280.451 132.600 C 280.235 132.160,279.766 131.440,279.407 131.000 L 278.756 130.200 279.149 131.000 M233.681 134.191 C 234.159 135.176,234.619 135.914,234.703 135.830 C 234.884 135.649,233.268 132.400,232.997 132.400 C 232.894 132.400,233.202 133.206,233.681 134.191 M127.680 133.800 C 127.680 134.240,127.824 135.050,128.000 135.600 C 128.254 136.392,128.320 136.433,128.320 135.800 C 128.320 135.360,128.176 134.550,128.000 134.000 C 127.746 133.208,127.680 133.167,127.680 133.800 M283.267 138.820 C 283.501 139.492,283.767 139.967,283.857 139.876 C 284.056 139.678,283.301 137.600,283.031 137.600 C 282.927 137.600,283.033 138.149,283.267 138.820 M128.901 140.600 C 128.905 141.480,128.987 141.793,129.083 141.295 C 129.179 140.798,129.175 140.078,129.075 139.695 C 128.975 139.313,128.896 139.720,128.901 140.600 M236.229 140.400 C 236.376 140.950,236.664 141.670,236.867 142.000 C 237.125 142.417,237.157 142.295,236.971 141.600 C 236.824 141.050,236.536 140.330,236.333 140.000 C 236.075 139.583,236.043 139.705,236.229 140.400 M284.229 141.200 C 284.376 141.750,284.664 142.470,284.867 142.800 C 285.125 143.217,285.157 143.095,284.971 142.400 C 284.824 141.850,284.536 141.130,284.333 140.800 C 284.075 140.383,284.043 140.505,284.229 141.200 M129.301 143.800 C 129.305 144.680,129.387 144.993,129.483 144.495 C 129.579 143.998,129.575 143.278,129.475 142.895 C 129.375 142.513,129.296 142.920,129.301 143.800 M285.256 144.400 C 285.256 144.730,285.411 145.360,285.600 145.800 C 285.817 146.304,285.944 146.378,285.944 146.000 C 285.944 145.670,285.789 145.040,285.600 144.600 C 285.383 144.096,285.256 144.022,285.256 144.400 M129.737 150.600 C 129.739 152.360,129.809 153.030,129.893 152.089 C 129.978 151.149,129.977 149.709,129.891 148.889 C 129.805 148.070,129.736 148.840,129.737 150.600 M238.495 149.200 C 238.495 149.750,238.632 150.740,238.800 151.400 C 239.072 152.470,239.105 152.492,239.105 151.600 C 239.105 151.050,238.968 150.060,238.800 149.400 C 238.528 148.330,238.495 148.308,238.495 149.200 M286.468 149.000 C 286.462 149.440,286.611 150.160,286.800 150.600 C 287.238 151.619,287.238 150.568,286.800 149.200 C 286.543 148.396,286.477 148.357,286.468 149.000 M130.196 231.400 C 130.196 274.080,130.243 291.481,130.300 270.068 C 130.357 248.656,130.357 213.736,130.300 192.468 C 130.243 171.201,130.196 188.720,130.196 231.400 M287.709 156.800 C 287.709 157.790,287.787 158.195,287.882 157.700 C 287.978 157.205,287.978 156.395,287.882 155.900 C 287.787 155.405,287.709 155.810,287.709 156.800 M239.734 159.200 C 239.734 160.850,239.805 161.525,239.891 160.700 C 239.978 159.875,239.978 158.525,239.891 157.700 C 239.805 156.875,239.734 157.550,239.734 159.200 M288.109 160.400 C 288.109 161.390,288.187 161.795,288.282 161.300 C 288.378 160.805,288.378 159.995,288.282 159.500 C 288.187 159.005,288.109 159.410,288.109 160.400 M240.140 167.200 C 240.140 169.070,240.209 169.835,240.293 168.900 C 240.377 167.965,240.377 166.435,240.293 165.500 C 240.209 164.565,240.140 165.330,240.140 167.200 M287.813 175.413 C 287.657 176.871,287.614 178.147,287.716 178.250 C 287.819 178.352,288.031 177.244,288.187 175.787 C 288.343 174.329,288.386 173.053,288.284 172.950 C 288.181 172.848,287.969 173.956,287.813 175.413 M239.731 176.600 C 239.733 178.140,239.805 178.721,239.892 177.891 C 239.979 177.061,239.977 175.801,239.889 175.091 C 239.800 174.381,239.729 175.060,239.731 176.600 M286.650 182.450 C 286.317 184.117,286.640 184.440,287.000 182.800 C 287.152 182.109,287.193 181.459,287.091 181.358 C 286.989 181.256,286.791 181.747,286.650 182.450 M285.829 185.429 C 285.681 186.015,285.638 186.572,285.732 186.666 C 285.827 186.760,286.024 186.358,286.171 185.771 C 286.319 185.185,286.362 184.628,286.268 184.534 C 286.173 184.440,285.976 184.842,285.829 185.429 M236.473 195.273 C 236.235 196.209,236.110 197.043,236.194 197.127 C 236.278 197.212,236.551 196.524,236.800 195.600 C 237.049 194.676,237.174 193.841,237.079 193.745 C 236.983 193.650,236.710 194.337,236.473 195.273 M281.978 195.098 C 281.074 196.901,281.087 197.079,282.020 195.683 C 282.504 194.959,282.817 194.283,282.715 194.182 C 282.613 194.080,282.281 194.492,281.978 195.098 M279.542 199.300 C 278.804 200.455,277.152 202.660,275.872 204.200 C 273.570 206.968,273.567 206.975,275.611 204.800 C 277.862 202.404,281.597 197.200,281.065 197.200 C 280.965 197.200,280.280 198.145,279.542 199.300 M230.463 208.983 C 230.003 209.762,229.699 210.400,229.786 210.400 C 230.099 210.400,231.683 207.950,231.493 207.760 C 231.386 207.653,230.923 208.204,230.463 208.983 M269.781 210.500 L 268.200 212.200 269.900 210.619 C 271.481 209.148,271.784 208.800,271.481 208.800 C 271.416 208.800,270.651 209.565,269.781 210.500 M266.400 213.249 C 265.006 214.471,265.005 214.472,266.288 213.619 C 266.996 213.148,267.682 212.591,267.812 212.381 C 268.197 211.757,267.877 211.954,266.400 213.249 M226.180 214.547 C 224.421 216.455,221.786 218.732,218.794 220.930 C 217.810 221.653,217.812 221.654,219.000 220.973 C 221.050 219.799,225.463 216.049,226.993 214.182 C 228.976 211.763,228.587 211.937,226.180 214.547 M261.893 216.214 C 261.072 216.772,260.400 217.315,260.400 217.420 C 260.400 217.525,261.120 217.135,262.000 216.553 C 263.397 215.628,263.870 215.200,263.493 215.200 C 263.434 215.200,262.714 215.656,261.893 216.214 M254.000 220.600 C 253.010 221.130,252.380 221.564,252.600 221.564 C 252.820 221.564,253.810 221.130,254.800 220.600 C 255.790 220.070,256.420 219.636,256.200 219.636 C 255.980 219.636,254.990 220.070,254.000 220.600 M209.200 225.000 C 208.430 225.297,208.070 225.545,208.400 225.552 C 208.730 225.558,209.540 225.317,210.200 225.014 C 211.745 224.307,211.026 224.297,209.200 225.000 M241.800 225.200 C 241.296 225.417,241.222 225.544,241.600 225.544 C 241.930 225.544,242.560 225.389,243.000 225.200 C 243.504 224.983,243.578 224.856,243.200 224.856 C 242.870 224.856,242.240 225.011,241.800 225.200 M204.696 225.984 C 203.868 226.144,203.081 226.386,202.946 226.521 C 202.603 226.864,205.669 226.364,206.400 225.958 C 207.091 225.574,206.787 225.578,204.696 225.984 M202.531 229.800 C 202.533 231.340,202.605 231.921,202.692 231.091 C 202.779 230.261,202.777 229.001,202.689 228.291 C 202.600 227.581,202.529 228.260,202.531 229.800 M232.000 227.600 C 230.656 228.031,232.108 228.031,233.800 227.600 C 234.878 227.326,234.898 227.294,234.000 227.287 C 233.450 227.283,232.550 227.424,232.000 227.600 M228.800 228.400 C 228.800 228.620,229.250 228.800,229.800 228.800 C 230.350 228.800,230.800 228.620,230.800 228.400 C 230.800 228.180,230.350 228.000,229.800 228.000 C 229.250 228.000,228.800 228.180,228.800 228.400 M237.800 229.218 C 238.900 229.390,240.520 229.520,241.400 229.509 C 242.793 229.490,242.716 229.448,240.800 229.183 C 239.590 229.016,237.970 228.885,237.200 228.893 C 236.078 228.904,236.197 228.969,237.800 229.218 M248.000 230.380 C 248.999 230.720,251.482 230.932,251.167 230.651 C 251.075 230.569,250.100 230.399,249.000 230.272 C 247.651 230.116,247.326 230.151,248.000 230.380 M207.905 233.483 C 208.402 233.579,209.122 233.575,209.505 233.475 C 209.887 233.375,209.480 233.296,208.600 233.301 C 207.720 233.305,207.407 233.387,207.905 233.483 M211.105 233.883 C 211.602 233.979,212.322 233.975,212.705 233.875 C 213.087 233.775,212.680 233.696,211.800 233.701 C 210.920 233.705,210.607 233.787,211.105 233.883 M217.000 234.746 C 217.440 234.939,218.430 235.210,219.200 235.350 C 220.161 235.524,220.349 235.494,219.800 235.254 C 219.360 235.061,218.370 234.790,217.600 234.650 C 216.639 234.476,216.451 234.506,217.000 234.746 M221.400 236.000 C 221.840 236.189,222.470 236.344,222.800 236.344 C 223.178 236.344,223.104 236.217,222.600 236.000 C 222.160 235.811,221.530 235.656,221.200 235.656 C 220.822 235.656,220.896 235.783,221.400 236.000 M224.000 236.733 C 224.330 236.936,225.050 237.224,225.600 237.371 C 226.295 237.557,226.417 237.525,226.000 237.267 C 225.670 237.064,224.950 236.776,224.400 236.629 C 223.705 236.443,223.583 236.475,224.000 236.733 M226.833 237.752 C 227.241 238.124,231.200 239.993,231.200 239.813 C 231.200 239.588,227.380 237.600,226.947 237.600 C 226.793 237.600,226.742 237.668,226.833 237.752 M275.600 238.979 C 275.600 239.089,276.140 239.459,276.800 239.800 C 277.460 240.141,278.000 240.331,278.000 240.221 C 278.000 240.111,277.460 239.741,276.800 239.400 C 276.140 239.059,275.600 238.869,275.600 238.979 M231.600 240.150 C 231.600 240.244,232.241 240.699,233.024 241.161 C 233.807 241.623,234.336 241.820,234.199 241.598 C 233.931 241.164,231.600 239.866,231.600 240.150 M278.400 240.521 C 278.400 240.612,279.435 241.351,280.700 242.163 C 281.965 242.975,282.508 243.221,281.906 242.710 C 280.718 241.700,278.400 240.253,278.400 240.521 M237.487 244.409 C 238.195 245.151,238.842 245.678,238.925 245.579 C 239.008 245.481,238.429 244.873,237.638 244.229 L 236.200 243.058 237.487 244.409 M284.800 244.925 C 284.800 245.031,286.105 246.252,287.700 247.639 C 289.325 249.052,289.985 249.494,289.200 248.645 C 287.758 247.084,284.800 244.584,284.800 244.925 M239.600 246.322 C 239.600 246.498,240.271 247.263,241.091 248.022 C 241.912 248.780,242.227 248.962,241.791 248.427 C 240.506 246.848,239.600 245.977,239.600 246.322 M243.375 250.932 C 243.991 251.739,244.576 252.400,244.675 252.400 C 244.953 252.400,243.221 250.060,242.709 249.744 C 242.459 249.589,242.759 250.124,243.375 250.932 M293.804 254.600 C 295.407 256.826,295.850 257.239,294.957 255.673 C 294.541 254.943,293.852 254.043,293.426 253.673 C 292.976 253.282,293.134 253.669,293.804 254.600 M296.657 258.991 C 297.213 259.986,297.747 260.800,297.842 260.800 C 298.123 260.800,296.448 257.677,296.029 257.418 C 295.818 257.288,296.101 257.995,296.657 258.991 M248.067 259.220 C 248.301 259.892,248.567 260.367,248.657 260.276 C 248.856 260.078,248.101 258.000,247.831 258.000 C 247.727 258.000,247.833 258.549,248.067 259.220 M250.056 264.000 C 250.056 264.330,250.211 264.960,250.400 265.400 C 250.617 265.904,250.744 265.978,250.744 265.600 C 250.744 265.270,250.589 264.640,250.400 264.200 C 250.183 263.696,250.056 263.622,250.056 264.000 M299.228 263.800 C 299.228 264.020,299.486 264.650,299.800 265.200 C 300.114 265.750,300.372 266.020,300.372 265.800 C 300.372 265.580,300.114 264.950,299.800 264.400 C 299.486 263.850,299.228 263.580,299.228 263.800 M251.044 267.800 C 251.373 269.271,251.602 269.590,251.594 268.567 C 251.591 268.145,251.405 267.530,251.182 267.200 C 250.885 266.762,250.848 266.924,251.044 267.800 M252.272 273.400 C 252.399 274.500,252.569 275.475,252.651 275.567 C 252.932 275.882,252.720 273.399,252.380 272.400 C 252.151 271.726,252.116 272.051,252.272 273.400 M302.406 273.033 C 302.409 273.455,302.595 274.070,302.818 274.400 C 303.115 274.838,303.152 274.676,302.956 273.800 C 302.627 272.329,302.398 272.010,302.406 273.033 M303.640 278.633 C 303.662 279.275,303.833 280.250,304.020 280.800 C 304.249 281.474,304.284 281.149,304.128 279.800 C 303.869 277.550,303.579 276.859,303.640 278.633 M253.400 291.200 C 253.400 297.470,253.511 301.250,253.648 299.600 C 253.969 295.711,253.970 286.179,253.650 282.600 C 253.513 281.060,253.400 284.930,253.400 291.200 M304.528 286.400 C 304.528 287.830,304.601 288.415,304.689 287.700 C 304.778 286.985,304.778 285.815,304.689 285.100 C 304.601 284.385,304.528 284.970,304.528 286.400 M304.667 294.747 C 304.498 297.907,304.440 300.574,304.538 300.672 C 304.784 300.918,305.320 291.236,305.129 290.000 C 305.044 289.450,304.836 291.586,304.667 294.747 M303.813 304.873 C 303.667 305.823,303.445 307.230,303.321 308.000 C 303.196 308.770,303.198 309.305,303.325 309.188 C 303.632 308.908,304.482 303.548,304.256 303.322 C 304.159 303.225,303.960 303.923,303.813 304.873 M252.460 308.450 C 252.427 309.028,252.311 310.108,252.201 310.850 L 252.003 312.200 252.424 310.857 C 252.655 310.119,252.772 309.039,252.682 308.457 L 252.520 307.400 252.460 308.450 M302.649 311.015 C 302.512 311.373,302.415 311.966,302.434 312.333 C 302.453 312.700,302.627 312.469,302.821 311.820 C 303.198 310.558,303.065 309.933,302.649 311.015 M129.731 313.400 C 129.733 314.940,129.805 315.521,129.892 314.691 C 129.979 313.861,129.977 312.601,129.889 311.891 C 129.800 311.181,129.729 311.860,129.731 313.400 M300.379 318.655 C 300.158 319.236,300.052 319.785,300.143 319.876 C 300.233 319.967,300.499 319.492,300.733 318.820 C 301.253 317.328,300.939 317.182,300.379 318.655 M250.229 319.429 C 250.081 320.015,250.038 320.572,250.132 320.666 C 250.227 320.760,250.424 320.358,250.571 319.771 C 250.719 319.185,250.762 318.628,250.668 318.534 C 250.573 318.440,250.376 318.842,250.229 319.429 M128.987 321.787 C 128.831 323.244,128.789 324.523,128.895 324.628 C 129.001 324.734,129.210 323.623,129.360 322.160 C 129.510 320.697,129.551 319.418,129.452 319.318 C 129.352 319.219,129.143 320.329,128.987 321.787 M249.244 322.444 C 248.998 323.151,248.866 323.800,248.952 323.885 C 249.038 323.971,249.309 323.462,249.556 322.756 C 249.802 322.049,249.934 321.400,249.848 321.315 C 249.762 321.229,249.491 321.738,249.244 322.444 M296.800 326.000 C 296.351 326.880,296.074 327.600,296.184 327.600 C 296.294 327.600,296.751 326.880,297.200 326.000 C 297.649 325.120,297.926 324.400,297.816 324.400 C 297.706 324.400,297.249 325.120,296.800 326.000 M127.850 329.250 C 127.517 330.917,127.840 331.240,128.200 329.600 C 128.352 328.909,128.393 328.259,128.291 328.158 C 128.189 328.056,127.991 328.547,127.850 329.250 M244.185 332.900 C 243.568 333.835,243.320 334.389,243.632 334.131 C 244.233 333.634,245.764 331.200,245.476 331.200 C 245.383 331.200,244.802 331.965,244.185 332.900 M292.078 332.519 C 291.375 333.245,290.800 333.965,290.800 334.119 C 290.800 334.401,291.541 333.699,292.962 332.073 C 294.140 330.724,293.510 331.042,292.078 332.519 M126.846 333.267 C 126.821 333.634,126.696 334.264,126.570 334.667 C 126.352 335.362,126.363 335.363,126.797 334.687 C 127.048 334.296,127.173 333.666,127.073 333.287 C 126.911 332.668,126.888 332.666,126.846 333.267 M240.200 337.695 C 237.703 340.265,237.492 340.755,239.811 338.600 C 240.847 337.638,243.341 334.797,243.141 334.807 C 243.064 334.811,241.740 336.111,240.200 337.695 M286.169 338.126 C 285.271 338.833,284.101 339.732,283.569 340.123 C 282.624 340.817,282.631 340.818,283.845 340.164 C 285.046 339.516,288.407 336.824,288.000 336.836 C 287.890 336.839,287.066 337.419,286.169 338.126 M280.696 341.750 C 278.775 342.931,278.238 343.489,279.800 342.681 C 281.054 342.033,282.745 340.826,282.400 340.825 C 282.290 340.825,281.523 341.241,280.696 341.750 M121.943 344.500 C 121.296 345.422,121.236 345.635,121.737 345.233 C 122.450 344.660,123.387 343.200,123.041 343.200 C 122.939 343.200,122.444 343.785,121.943 344.500 M272.900 345.612 C 271.561 346.151,271.811 346.424,273.200 345.940 C 273.860 345.710,274.400 345.449,274.400 345.361 C 274.400 345.124,273.913 345.205,272.900 345.612 M224.400 346.400 C 223.576 346.664,223.541 346.726,224.200 346.754 C 224.640 346.773,225.270 346.613,225.600 346.400 C 226.301 345.947,225.814 345.947,224.400 346.400 M218.200 347.600 C 217.130 347.872,217.108 347.905,218.000 347.905 C 218.550 347.905,219.540 347.768,220.200 347.600 C 221.270 347.328,221.292 347.295,220.400 347.295 C 219.850 347.295,218.860 347.432,218.200 347.600 M117.200 349.236 C 116.536 349.779,116.469 349.915,117.000 349.640 C 118.305 348.966,119.028 348.412,118.600 348.415 C 118.380 348.417,117.750 348.786,117.200 349.236 M202.799 348.700 C 202.799 348.865,204.284 348.952,206.099 348.892 C 211.814 348.706,212.370 348.537,207.500 348.467 C 204.915 348.430,202.800 348.535,202.799 348.700 M202.476 351.620 C 202.374 354.607,202.663 354.816,206.780 354.722 C 210.172 354.644,210.177 354.642,207.400 354.520 C 202.827 354.318,202.861 354.339,202.696 351.697 L 202.551 349.400 202.476 351.620 M258.800 350.000 C 258.008 350.254,257.967 350.320,258.600 350.320 C 259.040 350.320,259.850 350.176,260.400 350.000 C 261.192 349.746,261.233 349.680,260.600 349.680 C 260.160 349.680,259.350 349.824,258.800 350.000 M109.676 353.100 L 109.800 354.600 144.978 354.702 C 164.326 354.758,180.292 354.668,180.458 354.502 C 180.624 354.336,164.819 354.247,145.336 354.304 L 109.911 354.409 110.075 353.004 C 110.166 352.232,110.085 351.600,109.896 351.600 C 109.706 351.600,109.608 352.275,109.676 353.100 M247.200 352.000 C 245.850 352.284,245.843 352.295,247.000 352.300 C 247.660 352.303,248.740 352.168,249.400 352.000 C 251.060 351.578,249.207 351.578,247.200 352.000 M236.200 353.200 C 234.300 353.461,234.280 353.475,235.800 353.498 C 236.680 353.510,238.390 353.384,239.600 353.217 C 241.766 352.917,241.772 352.913,240.000 352.919 C 239.010 352.923,237.300 353.049,236.200 353.200 M227.700 353.887 C 228.305 353.978,229.295 353.978,229.900 353.887 C 230.505 353.795,230.010 353.720,228.800 353.720 C 227.590 353.720,227.095 353.795,227.700 353.887 M213.680 354.298 C 215.594 354.371,218.834 354.371,220.880 354.298 C 222.926 354.226,221.360 354.166,217.400 354.165 C 213.440 354.165,211.766 354.224,213.680 354.298 " stroke="none" fill="#f6bcb0" fill-rule="evenodd"></path></g></svg>