<?xml version="1.0" standalone="no"?>
<!DOCTYPE svg PUBLIC "-//W3C//DTD SVG 20010904//EN"
 "http://www.w3.org/TR/2001/REC-SVG-20010904/DTD/svg10.dtd">
<svg version="1.0" xmlns="http://www.w3.org/2000/svg"
 width="320.000000pt" height="320.000000pt" viewBox="0 0 320.000000 320.000000"
 preserveAspectRatio="xMidYMid meet">

<g transform="translate(0.000000,320.000000) scale(0.100000,-0.100000)"
fill="#000000" stroke="none">
<path d="M799 2794 c0 -11 0 -87 1 -171 l1 -152 -172 -288 c-94 -158 -209
-349 -255 -424 -46 -75 -84 -143 -84 -151 0 -9 108 -197 241 -419 132 -222
248 -417 257 -434 13 -23 18 -68 22 -200 l5 -170 589 -3 590 -2 292 170 293
171 49 127 c27 70 104 269 172 443 l122 315 -167 420 c-103 258 -175 427 -189
439 -12 11 -147 92 -301 180 l-280 160 -592 3 c-573 4 -593 4 -594 -14z m1149
-59 c6 -5 63 -467 59 -472 -3 -2 -238 107 -523 242 l-519 246 490 -6 c270 -4
491 -8 493 -10z m-553 -252 c132 -63 270 -128 308 -145 37 -17 65 -33 63 -35
-3 -4 -508 100 -861 176 -25 6 -31 13 -37 46 -4 22 -7 79 -7 127 l-1 87 148
-71 c81 -39 255 -122 387 -185z m869 89 c125 -68 226 -125 224 -127 -7 -7
-398 -185 -406 -185 -5 0 -19 82 -31 183 -12 100 -25 199 -28 221 -4 23 -2 37
4 35 5 -2 112 -60 237 -127z m-1241 -177 c85 -19 317 -69 514 -110 197 -42
368 -79 381 -83 18 -6 -35 -27 -230 -94 -982 -336 -1273 -434 -1277 -432 -5 4
445 754 454 754 1 0 72 -16 158 -35z m1656 -350 c78 -195 141 -357 141 -360 0
-2 -158 110 -350 250 -193 140 -351 257 -350 262 1 7 397 202 412 203 4 0 70
-160 147 -355z m-651 -260 c1 -132 5 -354 8 -493 l7 -252 -119 41 c-138 47
-1201 411 -1379 471 -66 22 -123 44 -127 47 -4 4 353 128 795 277 l802 271 6
-61 c3 -34 6 -169 7 -301z m469 57 c177 -130 321 -241 319 -247 -3 -11 -697
-524 -708 -525 -5 0 -8 141 -8 313 0 171 -3 413 -7 536 l-6 225 44 -32 c24
-18 189 -139 366 -270z m-1330 -569 c420 -147 760 -270 755 -274 -5 -5 -555
-124 -1048 -226 -18 -4 -52 48 -251 381 -127 212 -228 386 -225 386 3 0 349
-120 769 -267z m1508 -123 c-74 -194 -135 -355 -135 -357 0 -3 -6 -3 -12 -1
-17 4 -369 188 -386 201 -9 7 80 79 325 263 186 139 339 252 340 250 1 -1 -58
-161 -132 -356z m-645 -217 c0 -5 -19 -117 -42 -250 l-43 -243 -485 0 -485 0
100 48 c55 27 242 115 415 198 173 82 362 172 420 201 110 54 120 58 120 46z
m271 -90 c104 -54 189 -100 188 -103 0 -6 -471 -272 -474 -268 -8 11 82 468
92 468 3 0 90 -44 194 -97z m-471 68 c-15 -9 -786 -371 -897 -422 l-63 -28 0
127 0 127 478 101 c516 110 504 108 482 95z"/>
</g>
</svg>
