<svg width="1024" height="1024" xmlns="http://www.w3.org/2000/svg"><g fill="none" fill-rule="evenodd"><path fill="#FFF" d="M0 0h1024v1024H0z"/><g fill="#405664"><path d="M228.384 746.432l-.146-60.858-29.85 50.135h-10.577l-29.705-48.831v59.554H136.08V645h19.417l37.964 63.032 37.385-63.032h19.271l.29 101.43zM269.533 746.432h22.605v-77.957h-22.605v77.957zm1.16-92.447c-2.609-2.414-3.912-5.409-3.912-8.984 0-3.573 1.303-6.568 3.912-8.984 2.608-2.413 5.989-3.623 10.143-3.623 4.152 0 7.535 1.16 10.143 3.478 2.609 2.319 3.912 5.216 3.912 8.694 0 3.768-1.303 6.883-3.912 9.347-2.608 2.463-5.991 3.694-10.143 3.694-4.154 0-7.535-1.206-10.143-3.622zM380.338 676.01c5.942 5.796 8.912 14.395 8.912 25.793v44.629h-22.604V705.28c0-6.18-1.354-10.795-4.058-13.838-2.705-3.043-6.617-4.565-11.736-4.565-5.702 0-10.24 1.764-13.621 5.29-3.383 3.526-5.072 8.766-5.072 15.721v38.544h-22.605v-77.957h21.59v9.129c2.994-3.283 6.713-5.82 11.158-7.608 4.442-1.786 9.322-2.68 14.635-2.68 9.659 0 17.46 2.898 23.401 8.694M429.271 688.761c-3.477 2.898-5.603 6.86-6.375 11.882h38.398c-.774-4.926-2.897-8.861-6.375-11.81-3.477-2.945-7.73-4.419-12.752-4.419-5.122 0-9.419 1.449-12.896 4.347m52.89 25.068h-58.975c1.061 4.832 3.572 8.646 7.535 11.447 3.96 2.804 8.886 4.202 14.779 4.202 4.057 0 7.655-.602 10.795-1.811 3.138-1.206 6.062-3.115 8.767-5.724l12.026 13.042c-7.342 8.404-18.065 12.606-32.168 12.606-8.79 0-16.568-1.714-23.328-5.144-6.763-3.428-11.98-8.187-15.65-14.273-3.673-6.086-5.506-12.99-5.506-20.72 0-7.63 1.811-14.513 5.434-20.649 3.622-6.133 8.596-10.915 14.924-14.346 6.327-3.427 13.404-5.143 21.229-5.143 7.63 0 14.538 1.644 20.72 4.926 6.182 3.285 11.036 7.995 14.563 14.128 3.525 6.136 5.29 13.259 5.29 21.373 0 .29-.146 2.318-.436 6.086M526.818 670.214c4.587-1.931 9.876-2.898 15.868-2.898v20.865c-2.515-.192-4.203-.289-5.073-.289-6.472 0-11.544 1.811-15.215 5.434-3.672 3.622-5.505 9.056-5.505 16.301v36.805h-22.605v-77.957h21.59v10.288c2.703-3.767 6.35-6.616 10.94-8.55M624.93 694.122h21.446v41.153c-5.506 4.154-11.882 7.342-19.127 9.563-7.245 2.22-14.54 3.332-21.88 3.332-10.53 0-19.996-2.245-28.4-6.738-8.405-4.492-14.998-10.722-19.78-18.692-4.781-7.97-7.172-16.975-7.172-27.023 0-10.046 2.39-19.055 7.173-27.025 4.78-7.97 11.422-14.2 19.924-18.692 8.498-4.492 18.063-6.738 28.69-6.738 8.886 0 16.953 1.499 24.198 4.492 7.245 2.995 13.331 7.342 18.258 13.042l-15.07 13.91c-7.245-7.63-15.989-11.447-26.227-11.447-6.473 0-12.222 1.353-17.243 4.057-5.024 2.706-8.937 6.52-11.737 11.447-2.803 4.927-4.202 10.578-4.202 16.954 0 6.28 1.399 11.882 4.202 16.808 2.8 4.926 6.688 8.767 11.664 11.52 4.975 2.752 10.65 4.13 17.027 4.13 6.76 0 12.845-1.45 18.257-4.347v-29.706zM703.264 729.696c2.993-1.786 5.12-4.42 6.375-7.897v-7.97h-15.505c-9.273 0-13.91 3.043-13.91 9.129 0 2.898 1.135 5.194 3.406 6.883 2.268 1.691 5.383 2.536 9.346 2.536 3.862 0 7.293-.892 10.288-2.681m19.272-53.758c6.47 5.748 9.708 14.417 9.708 26.01v44.484h-21.156v-9.708c-4.251 7.245-12.172 10.867-23.763 10.867-5.991 0-11.183-1.014-15.577-3.043-4.397-2.029-7.753-4.83-10.071-8.404-2.318-3.573-3.477-7.63-3.477-12.172 0-7.245 2.729-12.944 8.187-17.099 5.456-4.152 13.885-6.23 25.285-6.23h17.967c0-4.926-1.498-8.717-4.492-11.375-2.995-2.655-7.486-3.984-13.475-3.984-4.155 0-8.237.652-12.244 1.956-4.01 1.304-7.415 3.067-10.216 5.289l-8.114-15.795c4.25-2.993 9.346-5.311 15.287-6.955 5.94-1.642 12.05-2.463 18.33-2.463 12.074 0 21.348 2.875 27.821 8.622M798.825 742.664c-2.224 1.644-4.952 2.876-8.187 3.695-3.238.82-6.643 1.232-10.216 1.232-9.273 0-16.447-2.365-21.518-7.1-5.072-4.732-7.607-11.687-7.607-20.865v-32.024H739.27v-17.388h12.026v-18.982H773.9v18.982h19.417v17.388h-19.417v31.733c0 3.285.845 5.821 2.537 7.608 1.688 1.788 4.08 2.68 7.172 2.68 3.572 0 6.616-.964 9.13-2.898l6.085 15.94zM830.413 688.761c-3.478 2.898-5.604 6.86-6.376 11.882h38.4c-.775-4.926-2.899-8.861-6.377-11.81-3.478-2.945-7.73-4.419-12.751-4.419-5.121 0-9.419 1.449-12.896 4.347m52.889 25.068h-58.975c1.062 4.832 3.572 8.646 7.535 11.447 3.96 2.804 8.886 4.202 14.78 4.202 4.057 0 7.655-.602 10.795-1.811 3.138-1.206 6.06-3.115 8.766-5.724l12.027 13.042c-7.343 8.404-18.065 12.606-32.168 12.606-8.792 0-16.568-1.714-23.33-5.144-6.762-3.428-11.978-8.187-15.648-14.273-3.673-6.086-5.507-12.99-5.507-20.72 0-7.63 1.812-14.513 5.434-20.649 3.623-6.133 8.597-10.915 14.925-14.346 6.326-3.427 13.403-5.143 21.228-5.143 7.63 0 14.538 1.644 20.72 4.926 6.181 3.285 11.036 7.995 14.563 14.128 3.526 6.136 5.29 13.259 5.29 21.373 0 .29-.146 2.318-.435 6.086"/></g><path fill="#1EA0F2" d="M589.675 277l-149.56 149.56 74.779 74.772L664.455 351.78z"/><path fill="#1576B3" d="M514.894 501.332l74.78 74.781H888.79L664.455 351.781z"/><path fill="#B4DFFB" d="M141 576.113h149.561l149.552-149.552-74.78-74.78z"/><path fill="#69C0F6" d="M290.562 576.113h149.552l74.78-74.78-74.78-74.772z"/><path fill="#1EA0F2" d="M589.675 277l-149.56 149.56 74.779 74.772L664.455 351.78z"/><path fill="#1576B3" d="M514.894 501.332l74.78 74.781H888.79L664.455 351.781z"/><path fill="#B4DFFB" d="M141 576.113h149.561l149.552-149.552-74.78-74.78z"/><path fill="#69C0F6" d="M290.562 576.113h149.552l74.78-74.78-74.78-74.772z"/></g></svg>